<svg version="1.1" id="Layer_1" xmlns="http://www.w3.org/2000/svg" xmlns:xlink="http://www.w3.org/1999/xlink" x="0px" y="0px"
	 width="100%" viewBox="0 0 632 632" enable-background="new 0 0 632 632" xml:space="preserve">
<path fill="#E7E6F1" opacity="1.000000" stroke="none" 
	d="
M7.000001,633.000000 
	C5.000453,633.000000 3.000906,633.000000 1.001019,633.000000 
	C1.000679,422.381500 1.000679,211.762985 1.000679,1.072234 
	C211.570786,1.072234 422.141602,1.072234 633.000000,1.072234 
	C633.000000,199.692413 633.000000,398.384949 632.672241,597.451843 
	C625.335632,589.597473 618.191956,581.479309 611.345764,573.117432 
	C596.357910,554.811646 580.999634,536.959900 561.605042,522.967712 
	C545.175293,511.114471 527.450012,501.788177 508.755127,493.674194 
	C505.283508,488.026794 501.677521,482.827820 498.546509,477.356934 
	C492.355103,466.538574 490.468323,455.300629 496.064148,443.532837 
	C497.917114,439.636169 499.131195,435.385895 501.330872,431.712555 
	C510.486298,416.423401 510.170074,400.409271 505.486908,383.997406 
	C500.408997,366.202087 489.856140,351.479156 479.081024,336.844177 
	C477.469696,334.655640 476.431122,331.485443 476.422150,328.765106 
	C476.346436,305.784912 476.577942,282.803772 476.702087,259.822815 
	C476.732208,254.246796 476.706604,248.670456 476.706604,242.944946 
	C480.909576,243.451019 484.472382,243.879990 488.302704,244.341187 
	C488.544403,242.294113 488.816528,240.827744 488.877411,239.352646 
	C490.920959,189.858902 476.242615,147.579819 438.712952,113.243301 
	C403.459198,80.989014 363.179230,68.897530 316.847504,77.513069 
	C270.922852,86.052910 233.349045,109.354927 204.037308,145.750931 
	C192.087448,160.588913 182.934097,177.125443 175.627136,195.173050 
	C173.970276,192.748199 172.546814,190.715958 171.175674,188.649002 
	C166.346619,181.369431 159.839050,176.107086 151.882294,172.602142 
	C130.056076,162.987762 107.108040,173.999664 102.391197,196.336151 
	C98.671631,213.950058 110.915939,232.126114 130.149017,237.943558 
	C140.529663,241.083389 150.552917,239.150192 160.740341,236.752838 
	C160.862457,236.869034 161.107025,237.101105 161.083130,237.462540 
	C156.917542,244.700638 155.153290,252.230804 155.062805,260.178955 
	C155.002197,265.502960 155.068970,270.830048 155.172668,276.153900 
	C155.269669,281.134125 153.333313,284.449402 148.644836,286.795563 
	C118.339432,301.960602 98.109970,342.545837 115.557114,378.434875 
	C119.390015,386.319183 122.479988,394.621521 125.255608,402.950165 
	C129.851349,416.740295 127.739349,429.646027 118.135849,440.779175 
	C113.368607,446.305725 108.284782,451.666565 102.745293,456.401764 
	C71.572899,483.048187 68.408218,523.963074 80.954895,557.574707 
	C65.125977,573.731506 49.403511,589.563416 33.751808,605.464966 
	C24.775230,614.584900 15.913465,623.817932 7.000001,633.000000 
z"/>
<path fill="#14B8A6" opacity="1.000000" stroke="none" 
	d="
M7.468658,633.000000 
	C15.913465,623.817932 24.775230,614.584900 33.751808,605.464966 
	C49.403511,589.563416 65.125977,573.731506 81.275246,557.454407 
	C84.903519,553.865295 88.055229,550.671753 91.250343,547.522217 
	C117.808319,521.343384 148.274231,500.981476 183.287933,488.156952 
	C197.847702,482.824127 213.339340,480.035461 228.327118,476.509308 
	C227.401535,480.821045 227.972031,484.680847 231.827576,486.159973 
	C234.343948,487.125336 238.050583,487.000793 240.449356,485.807373 
	C244.452164,483.815887 244.667084,479.522552 242.505310,474.084473 
	C248.549164,474.013000 254.132355,474.013000 259.748260,474.013000 
	C260.142548,478.971405 260.552460,483.263153 260.815155,487.563904 
	C263.248688,527.405823 298.863556,560.854736 341.711853,557.094421 
	C372.722260,554.372986 394.590973,538.140869 406.101166,509.349030 
	C409.710724,500.319916 410.038879,489.968628 411.760010,480.203339 
	C412.118134,478.171387 411.237305,475.581116 414.741852,475.705078 
	C420.061157,475.893250 425.510498,475.362457 430.679901,476.333344 
	C456.941010,481.265503 483.558807,484.697937 508.835480,493.999664 
	C527.450012,501.788177 545.175293,511.114471 561.605042,522.967712 
	C580.999634,536.959900 596.357910,554.811646 611.345764,573.117432 
	C618.191956,581.479309 625.335632,589.597473 632.672241,597.913086 
	C633.000000,609.658936 633.000000,621.317871 633.000000,633.000000 
	C424.645782,633.000000 216.291550,633.000000 7.468658,633.000000 
M326.735504,579.339478 
	C324.475708,582.630493 324.178528,586.369873 327.140686,588.850037 
	C329.238983,590.606995 332.973572,591.878052 335.460480,591.265564 
	C337.688202,590.716919 340.496704,587.409729 340.696991,585.114380 
	C340.918884,582.571411 339.107422,579.042114 337.038788,577.295959 
	C333.863037,574.615295 330.148743,575.788879 326.735504,579.339478 
M363.602997,575.987427 
	C358.764191,581.769531 360.344299,589.245789 366.868988,589.736877 
	C369.641754,589.945618 373.339294,588.216797 375.306763,586.132263 
	C377.716248,583.579529 377.062531,579.817139 374.546661,577.040466 
	C371.586609,573.773621 368.072510,573.257141 363.602997,575.987427 
M431.312744,484.444885 
	C427.402313,486.301910 425.285645,489.334686 426.287415,493.661560 
	C427.146667,497.373016 429.814758,500.394928 433.663208,499.715851 
	C436.476257,499.219452 439.970520,497.101135 441.282013,494.685547 
	C444.282227,489.159515 439.402679,483.936798 431.312744,484.444885 
M244.975967,507.406647 
	C246.584366,500.527893 242.037994,495.016846 235.947922,496.560822 
	C232.404327,497.459229 230.160599,499.679993 229.820099,503.493073 
	C229.488083,507.211151 230.869354,510.143768 234.353455,511.523682 
	C238.581223,513.198242 242.159027,512.055786 244.975967,507.406647 
M250.222244,534.844299 
	C253.461746,531.409302 253.678589,527.682068 250.786667,524.062134 
	C248.340225,520.999817 245.017929,520.214783 241.380249,521.901794 
	C237.733795,523.592834 236.379059,526.632080 236.925598,530.502808 
	C237.745438,536.308899 243.558472,538.499023 250.222244,534.844299 
M391.526978,555.611755 
	C387.975098,557.712891 385.790894,561.036987 387.617859,564.726868 
	C388.885895,567.287903 392.084747,570.098145 394.711975,570.419739 
	C397.034302,570.704041 400.643188,568.242432 402.029419,565.979614 
	C403.160797,564.132751 402.608032,560.384827 401.445526,558.202393 
	C399.623352,554.781494 395.972656,554.220398 391.526978,555.611755 
M303.336761,571.373657 
	C299.604309,573.318604 297.660645,576.678284 299.162384,580.399902 
	C300.170502,582.898132 303.005859,585.713196 305.486572,586.250977 
	C307.732483,586.737854 311.562927,584.992920 312.932587,583.013062 
	C314.296722,581.041199 314.341156,577.213013 313.403503,574.807007 
	C311.890869,570.925476 308.058594,570.252686 303.336761,571.373657 
M440.092438,523.207703 
	C440.550140,518.519592 438.427856,514.876221 433.973175,514.464722 
	C431.257294,514.213745 427.513092,515.982910 425.614166,518.090942 
	C422.606476,521.429688 424.489655,526.900269 428.521790,529.073975 
	C432.989563,531.482422 437.205139,529.620911 440.092438,523.207703 
M268.296509,548.298340 
	C266.907654,544.130554 264.003326,541.917847 259.642303,542.473206 
	C256.088867,542.925720 253.545898,545.007812 252.895523,548.802490 
	C252.079544,553.563416 254.969589,557.614685 259.536316,558.161133 
	C264.937592,558.807617 268.293762,555.394287 268.296509,548.298340 
M408.617615,546.835144 
	C409.929810,551.350159 413.235443,553.959778 417.530518,552.694641 
	C420.129425,551.929138 422.998444,548.895996 423.895538,546.253418 
	C425.391785,541.846008 421.757629,537.619690 417.191376,537.077576 
	C412.337372,536.501282 408.950592,539.985962 408.617615,546.835144 
M279.976227,574.028198 
	C284.213531,574.580750 288.121246,573.504272 289.053711,569.115540 
	C289.613037,566.482971 288.840637,562.582947 287.096069,560.737122 
	C285.518616,559.068237 281.487640,558.415710 279.132690,559.169922 
	C277.001678,559.852539 274.846191,562.807068 274.175690,565.176941 
	C273.036713,569.202576 275.486755,572.106873 279.976227,574.028198 
z"/>
<path fill="#115E59" opacity="1.000000" stroke="none" 
	d="
M508.755127,493.674194 
	C483.558807,484.697937 456.941010,481.265503 430.679901,476.333344 
	C425.510498,475.362457 420.061157,475.893250 414.741852,475.705078 
	C411.237305,475.581116 412.118134,478.171387 411.760010,480.203339 
	C410.038879,489.968628 409.710724,500.319916 406.101166,509.349030 
	C394.590973,538.140869 372.722260,554.372986 341.711853,557.094421 
	C298.863556,560.854736 263.248688,527.405823 260.815155,487.563904 
	C260.552460,483.263153 260.142548,478.971405 259.748260,474.013000 
	C254.132355,474.013000 248.549164,474.013000 242.152664,473.913879 
	C235.804764,470.348480 232.987183,470.844208 228.407242,476.089935 
	C213.339340,480.035461 197.847702,482.824127 183.287933,488.156952 
	C148.274231,500.981476 117.808319,521.343384 91.250343,547.522217 
	C88.055229,550.671753 84.903519,553.865295 81.411362,557.158691 
	C68.408218,523.963074 71.572899,483.048187 102.745293,456.401764 
	C108.284782,451.666565 113.368607,446.305725 118.135849,440.779175 
	C127.739349,429.646027 129.851349,416.740295 125.255608,402.950165 
	C122.479988,394.621521 119.390015,386.319183 115.557114,378.434875 
	C98.109970,342.545837 118.339432,301.960602 148.644836,286.795563 
	C153.333313,284.449402 155.269669,281.134125 155.172668,276.153900 
	C155.068970,270.830048 155.002197,265.502960 155.062805,260.178955 
	C155.153290,252.230804 156.917542,244.700638 161.324463,237.396027 
	C161.592880,236.751068 161.596054,236.534042 161.599213,236.317017 
	C161.272217,236.423553 160.945221,236.530090 160.618225,236.636627 
	C150.552917,239.150192 140.529663,241.083389 130.149017,237.943558 
	C110.915939,232.126114 98.671631,213.950058 102.391197,196.336151 
	C107.108040,173.999664 130.056076,162.987762 151.882294,172.602142 
	C159.839050,176.107086 166.346619,181.369431 171.175674,188.649002 
	C172.546814,190.715958 173.970276,192.748199 175.627136,195.173050 
	C182.934097,177.125443 192.087448,160.588913 204.037308,145.750931 
	C233.349045,109.354927 270.922852,86.052910 316.847504,77.513069 
	C363.179230,68.897530 403.459198,80.989014 438.712952,113.243301 
	C476.242615,147.579819 490.920959,189.858902 488.877411,239.352646 
	C488.816528,240.827744 488.544403,242.294113 488.302704,244.341187 
	C484.472382,243.879990 480.909576,243.451019 476.706604,242.944946 
	C476.706604,248.670456 476.732208,254.246796 476.702087,259.822815 
	C476.577942,282.803772 476.346436,305.784912 476.422150,328.765106 
	C476.431122,331.485443 477.469696,334.655640 479.081024,336.844177 
	C489.856140,351.479156 500.408997,366.202087 505.486908,383.997406 
	C510.170074,400.409271 510.486298,416.423401 501.330872,431.712555 
	C499.131195,435.385895 497.917114,439.636169 496.064148,443.532837 
	C490.468323,455.300629 492.355103,466.538574 498.546509,477.356934 
	C501.677521,482.827820 505.283508,488.026794 508.755127,493.674194 
M470.539246,255.339325 
	C470.539246,250.909348 470.539246,246.479370 470.539246,242.338104 
	C441.172516,234.744965 412.682007,227.447006 384.259552,219.893066 
	C382.093109,219.317291 379.499664,217.316559 378.647522,215.319778 
	C373.179932,202.507935 368.130035,189.517456 362.975769,176.572586 
	C361.870636,173.797012 360.937286,170.953415 359.857452,168.167267 
	C358.852142,165.573288 357.757080,163.014099 356.613068,160.223907 
	C343.428345,213.226410 310.256073,243.251602 256.331116,250.873856 
	C256.331116,252.112381 256.278992,253.415543 256.338837,254.713516 
	C257.459167,279.006775 258.616455,303.298340 259.718811,327.592407 
	C262.135071,380.842468 264.457947,434.096832 266.950806,487.343262 
	C268.425964,518.851562 297.625580,549.680969 328.894867,553.038513 
	C365.011749,556.916565 402.561676,525.692261 404.929565,489.221436 
	C405.932037,473.781250 405.608429,458.253082 405.815765,442.763947 
	C405.910583,435.683594 405.831909,428.600922 405.831909,421.604858 
	C444.314850,418.824585 467.613922,395.393127 469.048431,357.608063 
	C470.185669,327.652893 470.193054,297.654785 470.695740,267.675629 
	C470.745789,264.690247 470.751160,261.704163 471.006439,258.352081 
	C470.930054,257.660553 470.853638,256.969025 470.539246,255.339325 
z"/>
<path fill="#F4F4FF" opacity="1.000000" stroke="none" 
	d="
M326.975952,579.038879 
	C330.148743,575.788879 333.863037,574.615295 337.038788,577.295959 
	C339.107422,579.042114 340.918884,582.571411 340.696991,585.114380 
	C340.496704,587.409729 337.688202,590.716919 335.460480,591.265564 
	C332.973572,591.878052 329.238983,590.606995 327.140686,588.850037 
	C324.178528,586.369873 324.475708,582.630493 326.975952,579.038879 
z"/>
<path fill="#F6F6FF" opacity="1.000000" stroke="none" 
	d="
M363.920166,575.782166 
	C368.072510,573.257141 371.586609,573.773621 374.546661,577.040466 
	C377.062531,579.817139 377.716248,583.579529 375.306763,586.132263 
	C373.339294,588.216797 369.641754,589.945618 366.868988,589.736877 
	C360.344299,589.245789 358.764191,581.769531 363.920166,575.782166 
z"/>
<path fill="#F3F3FF" opacity="1.000000" stroke="none" 
	d="
M431.686493,484.309235 
	C439.402679,483.936798 444.282227,489.159515 441.282013,494.685547 
	C439.970520,497.101135 436.476257,499.219452 433.663208,499.715851 
	C429.814758,500.394928 427.146667,497.373016 426.287415,493.661560 
	C425.285645,489.334686 427.402313,486.301910 431.686493,484.309235 
z"/>
<path fill="#F6F6FF" opacity="1.000000" stroke="none" 
	d="
M244.816284,507.751343 
	C242.159027,512.055786 238.581223,513.198242 234.353455,511.523682 
	C230.869354,510.143768 229.488083,507.211151 229.820099,503.493073 
	C230.160599,499.679993 232.404327,497.459229 235.947922,496.560822 
	C242.037994,495.016846 246.584366,500.527893 244.816284,507.751343 
z"/>
<path fill="#F2F2FF" opacity="1.000000" stroke="none" 
	d="
M249.930115,535.098633 
	C243.558472,538.499023 237.745438,536.308899 236.925598,530.502808 
	C236.379059,526.632080 237.733795,523.592834 241.380249,521.901794 
	C245.017929,520.214783 248.340225,520.999817 250.786667,524.062134 
	C253.678589,527.682068 253.461746,531.409302 249.930115,535.098633 
z"/>
<path fill="#F3F3FF" opacity="1.000000" stroke="none" 
	d="
M391.884552,555.433105 
	C395.972656,554.220398 399.623352,554.781494 401.445526,558.202393 
	C402.608032,560.384827 403.160797,564.132751 402.029419,565.979614 
	C400.643188,568.242432 397.034302,570.704041 394.711975,570.419739 
	C392.084747,570.098145 388.885895,567.287903 387.617859,564.726868 
	C385.790894,561.036987 387.975098,557.712891 391.884552,555.433105 
z"/>
<path fill="#F5F5FF" opacity="1.000000" stroke="none" 
	d="
M303.722321,571.230530 
	C308.058594,570.252686 311.890869,570.925476 313.403503,574.807007 
	C314.341156,577.213013 314.296722,581.041199 312.932587,583.013062 
	C311.562927,584.992920 307.732483,586.737854 305.486572,586.250977 
	C303.005859,585.713196 300.170502,582.898132 299.162384,580.399902 
	C297.660645,576.678284 299.604309,573.318604 303.722321,571.230530 
z"/>
<path fill="#F3F2FF" opacity="1.000000" stroke="none" 
	d="
M440.042847,523.608032 
	C437.205139,529.620911 432.989563,531.482422 428.521790,529.073975 
	C424.489655,526.900269 422.606476,521.429688 425.614166,518.090942 
	C427.513092,515.982910 431.257294,514.213745 433.973175,514.464722 
	C438.427856,514.876221 440.550140,518.519592 440.042847,523.608032 
z"/>
<path fill="#F6F6FF" opacity="1.000000" stroke="none" 
	d="
M268.411194,548.658447 
	C268.293762,555.394287 264.937592,558.807617 259.536316,558.161133 
	C254.969589,557.614685 252.079544,553.563416 252.895523,548.802490 
	C253.545898,545.007812 256.088867,542.925720 259.642303,542.473206 
	C264.003326,541.917847 266.907654,544.130554 268.411194,548.658447 
z"/>
<path fill="#F3F3FF" opacity="1.000000" stroke="none" 
	d="
M408.512115,546.475708 
	C408.950592,539.985962 412.337372,536.501282 417.191376,537.077576 
	C421.757629,537.619690 425.391785,541.846008 423.895538,546.253418 
	C422.998444,548.895996 420.129425,551.929138 417.530518,552.694641 
	C413.235443,553.959778 409.929810,551.350159 408.512115,546.475708 
z"/>
<path fill="#F4F3FF" opacity="1.000000" stroke="none" 
	d="
M279.581177,573.933228 
	C275.486755,572.106873 273.036713,569.202576 274.175690,565.176941 
	C274.846191,562.807068 277.001678,559.852539 279.132690,559.169922 
	C281.487640,558.415710 285.518616,559.068237 287.096069,560.737122 
	C288.840637,562.582947 289.613037,566.482971 289.053711,569.115540 
	C288.121246,573.504272 284.213531,574.580750 279.581177,573.933228 
z"/>
<path fill="#F5F5FE" opacity="1.000000" stroke="none" 
	d="
M228.327118,476.509308 
	C232.987183,470.844208 235.804764,470.348480 241.692017,473.985352 
	C244.667084,479.522552 244.452164,483.815887 240.449356,485.807373 
	C238.050583,487.000793 234.343948,487.125336 231.827576,486.159973 
	C227.972031,484.680847 227.401535,480.821045 228.327118,476.509308 
z"/>
<path fill="#FEFEFF" opacity="1.000000" stroke="none" 
	d="
M470.777252,258.718384 
	C470.751160,261.704163 470.745789,264.690247 470.695740,267.675629 
	C470.193054,297.654785 470.185669,327.652893 469.048431,357.608063 
	C467.613922,395.393127 444.314850,418.824585 405.831909,421.604858 
	C405.831909,428.600922 405.910583,435.683594 405.815765,442.763947 
	C405.608429,458.253082 405.932037,473.781250 404.929565,489.221436 
	C402.561676,525.692261 365.011749,556.916565 328.894867,553.038513 
	C297.625580,549.680969 268.425964,518.851562 266.950806,487.343262 
	C264.457947,434.096832 262.135071,380.842468 259.718811,327.592407 
	C258.616455,303.298340 257.459167,279.006775 256.338837,254.713516 
	C256.278992,253.415543 256.331116,252.112381 256.331116,250.873856 
	C310.256073,243.251602 343.428345,213.226410 356.613068,160.223907 
	C357.757080,163.014099 358.852142,165.573288 359.857452,168.167267 
	C360.937286,170.953415 361.870636,173.797012 362.975769,176.572586 
	C368.130035,189.517456 373.179932,202.507935 378.647522,215.319778 
	C379.499664,217.316559 382.093109,219.317291 384.259552,219.893066 
	C412.682007,227.447006 441.172516,234.744965 470.539246,242.338104 
	C470.539246,246.479370 470.539246,250.909348 470.257904,255.942444 
	C459.069885,246.834488 443.962219,246.775299 440.142822,256.747009 
	C441.382812,256.559723 442.459534,256.397095 443.742737,256.534760 
	C444.102386,257.023682 444.255585,257.212280 444.300995,257.738617 
	C444.037323,258.891174 443.825378,259.699829 443.735046,260.521851 
	C443.320770,264.290466 444.808899,267.671387 448.338013,268.333466 
	C450.976898,268.828583 455.051453,267.940826 456.620728,266.088226 
	C458.161621,264.269135 457.491913,260.454224 457.478516,257.516632 
	C457.474457,256.632660 456.420746,255.753464 455.046692,253.639313 
	C461.154907,255.611526 465.966064,257.164948 470.777252,258.718384 
M416.401123,274.019135 
	C415.260590,271.259094 414.391876,268.337097 412.879303,265.798737 
	C411.947815,264.235535 410.033386,263.258057 408.560303,262.017578 
	C408.301300,263.865479 407.565674,265.804901 407.898804,267.539062 
	C408.359558,269.937531 409.600952,272.191315 410.549866,274.489807 
	C415.861359,287.355591 421.185425,300.216156 426.584564,313.270416 
	C422.836273,315.794312 419.256592,317.925934 416.048889,320.517914 
	C414.947968,321.407532 414.777161,323.448212 414.181427,324.963013 
	C415.782379,325.018188 417.721649,325.682312 418.921509,325.015656 
	C422.690002,322.921661 426.067719,320.130280 429.813049,317.986847 
	C432.965057,316.182892 433.229431,314.206909 431.866638,311.029633 
	C426.697418,298.977905 421.763550,286.825256 416.401123,274.019135 
M409.989777,372.411682 
	C410.669006,371.271881 411.849487,370.128052 411.840424,368.993744 
	C411.834991,368.307526 410.034241,367.142029 408.956543,367.035278 
	C399.485352,366.096924 391.910156,361.416077 385.737061,354.658447 
	C381.289093,349.789307 377.814484,344.042603 373.654907,338.889862 
	C372.671814,337.672058 370.681122,337.267639 369.153900,336.489044 
	C369.071625,338.246613 368.630188,340.087158 369.011597,341.737549 
	C369.368164,343.280151 370.506989,344.684601 371.457214,346.040771 
	C380.834229,359.423706 391.437439,371.082062 409.989777,372.411682 
M355.175720,258.966705 
	C354.308105,263.211060 355.324158,267.053711 359.658966,268.185608 
	C362.081696,268.818207 365.755554,268.099548 367.668732,266.530426 
	C371.711670,263.214539 369.998932,258.997467 366.517426,254.076828 
	C371.781189,255.794479 375.674957,257.065063 379.568726,258.335663 
	C376.078827,251.721405 370.447052,249.047165 363.677795,249.244507 
	C358.240265,249.403030 353.201996,251.139893 348.924500,256.819946 
	C351.598175,256.388519 353.004242,255.976074 354.383484,256.051941 
	C354.798218,256.074738 355.138245,257.456635 355.175720,258.966705 
z"/>
<path fill="#115E59" opacity="1.000000" stroke="none" 
	d="
M470.891846,258.535217 
	C465.966064,257.164948 461.154907,255.611526 455.046692,253.639313 
	C456.420746,255.753464 457.474457,256.632660 457.478516,257.516632 
	C457.491913,260.454224 458.161621,264.269135 456.620728,266.088226 
	C455.051453,267.940826 450.976898,268.828583 448.338013,268.333466 
	C444.808899,267.671387 443.320770,264.290466 443.735046,260.521851 
	C443.825378,259.699829 444.037323,258.891174 444.551971,257.545227 
	C444.452576,256.754211 443.994415,256.494324 443.536285,256.234436 
	C442.459534,256.397095 441.382812,256.559723 440.142822,256.747009 
	C443.962219,246.775299 459.069885,246.834488 470.376892,256.411530 
	C470.853638,256.969025 470.930054,257.660553 470.891846,258.535217 
z"/>
<path fill="#115E59" opacity="1.000000" stroke="none" 
	d="
M160.740341,236.752838 
	C160.945221,236.530090 161.272217,236.423553 161.599213,236.317017 
	C161.596054,236.534042 161.592880,236.751068 161.348358,237.034607 
	C161.107025,237.101105 160.862457,236.869034 160.740341,236.752838 
z"/>
<path fill="#115E59" opacity="1.000000" stroke="none" 
	d="
M416.571411,274.364746 
	C421.763550,286.825256 426.697418,298.977905 431.866638,311.029633 
	C433.229431,314.206909 432.965057,316.182892 429.813049,317.986847 
	C426.067719,320.130280 422.690002,322.921661 418.921509,325.015656 
	C417.721649,325.682312 415.782379,325.018188 414.181427,324.963013 
	C414.777161,323.448212 414.947968,321.407532 416.048889,320.517914 
	C419.256592,317.925934 422.836273,315.794312 426.584564,313.270416 
	C421.185425,300.216156 415.861359,287.355591 410.549866,274.489807 
	C409.600952,272.191315 408.359558,269.937531 407.898804,267.539062 
	C407.565674,265.804901 408.301300,263.865479 408.560303,262.017578 
	C410.033386,263.258057 411.947815,264.235535 412.879303,265.798737 
	C414.391876,268.337097 415.260590,271.259094 416.571411,274.364746 
z"/>
<path fill="#115E59" opacity="1.000000" stroke="none" 
	d="
M409.593018,372.472137 
	C391.437439,371.082062 380.834229,359.423706 371.457214,346.040771 
	C370.506989,344.684601 369.368164,343.280151 369.011597,341.737549 
	C368.630188,340.087158 369.071625,338.246613 369.153931,336.489075 
	C370.681122,337.267639 372.671814,337.672058 373.654907,338.889862 
	C377.814484,344.042603 381.289093,349.789307 385.737061,354.658447 
	C391.910156,361.416077 399.485352,366.096924 408.956543,367.035278 
	C410.034241,367.142029 411.834991,368.307526 411.840424,368.993744 
	C411.849487,370.128052 410.669006,371.271881 409.593018,372.472137 
z"/>
<path fill="#115E59" opacity="1.000000" stroke="none" 
	d="
M355.344116,258.591309 
	C355.138245,257.456635 354.798218,256.074738 354.383484,256.051941 
	C353.004242,255.976074 351.598175,256.388519 348.924500,256.819946 
	C353.201996,251.139893 358.240265,249.403030 363.677795,249.244507 
	C370.447052,249.047165 376.078827,251.721405 379.568726,258.335663 
	C375.674957,257.065063 371.781189,255.794479 366.517426,254.076828 
	C369.998932,258.997467 371.711670,263.214539 367.668732,266.530426 
	C365.755554,268.099548 362.081696,268.818207 359.658966,268.185608 
	C355.324158,267.053711 354.308105,263.211060 355.344116,258.591309 
z"/>
<path fill="#FEFEFF" opacity="1.000000" stroke="none" 
	d="
M443.742737,256.534760 
	C443.994415,256.494324 444.452576,256.754211 444.659729,257.207458 
	C444.255585,257.212280 444.102386,257.023682 443.742737,256.534760 
z"/>
</svg>