<svg width="72" height="72" viewBox="0 0 72 72" fill="none" xmlns="http://www.w3.org/2000/svg">
<rect width="72" height="72" fill="#14b8a6"/>
<path opacity="0.35" d="M44.5829 50.8655C46.0377 50.0244 47.7114 49.9558 49.1619 50.5136C50.3721 50.9814 51.754 50.5952 52.5779 49.591C54.0456 47.8014 55.2258 45.7759 56.054 43.5743C56.5304 42.3126 56.0798 40.9308 55.0498 40.0596C53.8997 39.0854 53.1659 37.6306 53.1659 35.9999C53.1659 34.3691 53.8997 32.9143 55.0541 31.9401C56.0798 31.069 56.5304 29.6871 56.0583 28.4254C55.2258 26.2239 54.0456 24.194 52.5822 22.4088C51.7582 21.4088 50.3764 21.0226 49.1662 21.4861C47.7114 22.044 46.0377 21.971 44.5829 21.1342C43.1238 20.2931 42.2226 18.8683 41.9866 17.3234C41.7934 16.0617 40.7935 15.0532 39.5318 14.8429C38.386 14.6455 37.2058 14.5425 35.9999 14.5425C34.794 14.5425 33.6139 14.6455 32.4681 14.8429C31.2064 15.0532 30.2064 16.0617 30.0133 17.3234C29.7773 18.8683 28.8761 20.2931 27.417 21.1342C25.9622 21.971 24.2885 22.044 22.838 21.4861C21.6278 21.0183 20.2416 21.4046 19.422 22.4045C17.9543 24.194 16.7741 26.2239 15.9416 28.4254C15.4695 29.6828 15.9201 31.069 16.9458 31.9401C18.1002 32.9143 18.834 34.3691 18.834 35.9999C18.834 37.6306 18.1002 39.0854 16.9458 40.0596C15.9201 40.9308 15.4695 42.3169 15.9416 43.5743C16.7741 45.7759 17.9543 47.8057 19.4177 49.591C20.2416 50.5909 21.6235 50.9771 22.8337 50.5136C24.2842 49.9558 25.9622 50.0244 27.4127 50.8655C28.8718 51.7067 29.773 53.1314 30.009 54.6721C30.2022 55.9338 31.2021 56.9423 32.4595 57.1569C33.6139 57.3543 34.794 57.4573 35.9999 57.4573C37.2058 57.4573 38.386 57.3543 39.5318 57.1569C40.7892 56.9423 41.7891 55.9338 41.9823 54.6721C42.2226 53.1314 43.1238 51.7067 44.5829 50.8655Z" fill="white"/>
<path d="M35.9999 27.417C31.2579 27.417 27.417 31.2579 27.417 35.9999C27.417 40.742 31.2579 44.5829 35.9999 44.5829C40.742 44.5829 44.5829 40.742 44.5829 35.9999C44.5829 31.2579 40.742 27.417 35.9999 27.417Z" fill="white"/>
</svg>
