<svg width="138" height="36" viewBox="0 0 138 36" fill="none" xmlns="http://www.w3.org/2000/svg">
<path d="M9.35207 31.3312H4.2005V18.3517H0.691162V14.1259H4.20037V11.1189C4.20037 7.55557 5.7525 5 10.8901 5C11.9767 5 13.6827 5.22136 13.6827 5.22136V9.14529H11.8909C10.0652 9.14529 9.35234 9.70656 9.35234 11.2583V14.1259H13.6143L13.2348 18.3517H9.35221L9.35207 31.3312ZM21.1725 13.7882C21.0974 13.7882 21.0202 13.7909 20.9437 13.7928C16.1669 13.7928 13.9814 17.4244 13.9814 22.5795C13.9814 29.0735 16.8163 31.6726 20.9811 31.6726C23.3639 31.6726 24.9294 30.6589 25.8809 28.7673V31.3329H30.7808V14.1277H25.8809V16.7736C25.104 15.0713 23.4947 13.8083 21.1725 13.7882ZM22.4184 17.8537C24.4246 17.8537 25.6288 19.2681 25.6288 21.6739L25.6335 24.1311C25.6335 25.7526 24.6389 27.6496 22.4184 27.6496C19.0046 27.6496 19.0958 23.9241 19.0958 22.6833C19.0958 18.5094 20.9146 17.8537 22.4184 17.8537ZM32.7596 22.7312C32.7596 20.6405 32.6606 13.7993 41.4793 13.7993C45.0193 13.7993 46.4975 14.9369 46.4975 14.9369L45.3094 18.6612C45.3094 18.6612 43.8331 17.8396 41.9096 17.8396C39.4458 17.8396 37.8737 19.2831 37.8737 21.823L37.8765 23.6441C37.8765 26.0846 39.3933 27.7137 41.9146 27.7137C43.667 27.7137 45.2822 26.8844 45.2822 26.8844L46.4672 30.5308C46.4672 30.5308 45.1157 31.6756 41.5041 31.6756C33.1073 31.6756 32.7598 25.5378 32.7598 22.7312H32.7596ZM75.2272 13.7928C80.0042 13.7928 82.2241 17.4244 82.2241 22.5795C82.2241 29.0735 79.3891 31.6726 75.2243 31.6726C72.8415 31.6726 71.0801 30.6591 70.1285 28.7673V31.3329L65.2903 31.331V5.52314L70.4273 5.07033V16.5405C71.1687 14.5338 73.6052 13.7928 75.2273 13.7928H75.2272ZM73.787 17.8537C71.7807 17.8537 70.4273 19.2681 70.4273 21.6739L70.4225 24.1311C70.4195 25.7526 71.3598 27.6496 73.787 27.6496C77.2008 27.6496 77.1096 23.9241 77.1096 22.6833C77.1096 18.5094 75.2909 17.8537 73.787 17.8537ZM55.4105 13.8071C49.9924 13.8071 47.1321 16.7927 47.1321 22.0984V23.0841C47.1321 29.9704 51.1489 31.7433 55.9378 31.7433C60.5925 31.7433 62.6994 30.4275 62.6994 30.4275L61.7382 26.9233C61.7382 26.9233 59.2598 27.9891 56.5537 27.9891C53.7483 27.9891 52.5418 27.2664 52.2325 24.5416H63.1101V21.7304C63.1101 15.9751 59.8999 13.8069 55.4103 13.8069L55.4105 13.8071ZM55.541 17.3159C57.4165 17.3159 58.6317 18.4783 58.565 21.174H52.2419C52.3516 18.3368 53.6621 17.3161 55.541 17.3161V17.3159ZM92.467 13.7835C86.9031 13.7835 83.974 16.9524 83.974 22.6313C83.974 30.4231 89.0231 31.6773 92.4763 31.6773C97.5315 31.6773 100.895 28.9266 100.895 22.702C100.895 16.2234 97.1131 13.7835 92.467 13.7835V13.7835ZM92.397 17.8678C94.8435 17.8678 95.8129 19.7184 95.8129 21.8249V23.636C95.8129 26.1878 94.4565 27.6638 92.3877 27.6638C90.4529 27.6638 89.0931 26.2832 89.0931 23.636V21.8249C89.0931 19.0017 90.7111 17.8678 92.397 17.8678V17.8678ZM111.128 13.7835C105.564 13.7835 102.635 16.9524 102.635 22.6313C102.635 30.4231 107.684 31.6773 111.138 31.6773C116.193 31.6773 119.556 28.9266 119.556 22.702C119.556 16.2234 115.774 13.7835 111.128 13.7835V13.7835ZM111.058 17.8678C113.505 17.8678 114.474 19.7184 114.474 21.8249V23.636C114.474 26.1878 113.118 27.6638 111.049 27.6638C109.114 27.6638 107.754 26.2832 107.754 23.636V21.8249C107.754 19.0017 109.372 17.8678 111.058 17.8678V17.8678ZM121.497 31.3312V5.52314L126.649 5.07033V22.3685L131.76 14.1259H137.201L131.869 22.6628L137.406 31.3312H131.95L126.649 22.9143V31.3312H121.497Z" fill="#ACABC7"/>
</svg>
