<svg width="72" height="72" viewBox="0 0 72 72" fill="none" xmlns="http://www.w3.org/2000/svg">
<rect width="72" height="72" fill="#14B8A6"/>
<path d="M51.7595 26.6051L47.4342 22.2798C45.0442 19.8898 41.1717 19.8898 38.7816 22.2798L36.0001 25.0614V48.2355C36.0001 51.5738 33.3246 54.2758 30.0026 54.3411C31.6096 54.3737 33.2287 53.7885 34.4543 52.5608L51.7575 35.2577C54.1475 32.8677 54.1475 28.9951 51.7595 26.6051Z" fill="white"/>
<path opacity="0.35" d="M48.2356 36H36V23.7644C36 20.3853 33.2613 17.6466 29.8822 17.6466H23.7645C20.3854 17.6466 17.6467 20.3853 17.6467 23.7644V42.1178V48.2355C17.6467 51.6146 20.3854 54.3533 23.7645 54.3533H29.8822H48.2356C51.6147 54.3533 54.3534 51.6146 54.3534 48.2355V42.1178C54.3534 38.7387 51.6147 36 48.2356 36Z" fill="white"/>
<path d="M26.8232 50.2748C28.5126 50.2748 29.8821 48.9053 29.8821 47.2159C29.8821 45.5265 28.5126 44.157 26.8232 44.157C25.1339 44.157 23.7643 45.5265 23.7643 47.2159C23.7643 48.9053 25.1339 50.2748 26.8232 50.2748Z" fill="white"/>
</svg>
