<svg width="72" height="72" viewBox="0 0 72 72" fill="none" xmlns="http://www.w3.org/2000/svg">
<rect width="72" height="72" fill="#14B8A6"/>
<path opacity="0.35" d="M51.3786 21.7461C49.7579 20.1255 47.1325 20.1255 45.5118 21.7461L20.8904 46.3398C20.5198 46.7104 20.2728 47.1861 20.1824 47.7042L19.4265 52.0886C19.2624 53.0382 20.0884 53.8605 21.0361 53.6964L25.3689 52.9423C25.8833 52.8519 26.3571 52.6067 26.7259 52.238L51.3786 27.6111C52.9993 25.9923 52.9993 23.3668 51.3786 21.7461Z" fill="white"/>
<path d="M40.9728 26.2744L46.8396 32.1412L50.7078 28.2804L44.841 22.4136L40.9728 26.2744Z" fill="white"/>
<path d="M19.8874 49.4152L19.4265 52.0886C19.2624 53.0381 20.0884 53.8604 21.0361 53.6963L23.704 53.2317L19.8874 49.4152Z" fill="white"/>
<path d="M41.2658 37.7813L24.9708 21.4862C23.6986 20.2141 21.6336 20.2141 20.3614 21.4862C19.0892 22.7584 19.0892 24.8234 20.3614 26.0956L36.6583 42.3925L41.2658 37.7813Z" fill="white"/>
<path opacity="0.35" d="M43.8582 48.1966L36.6565 42.3906L41.2659 37.7812L47.0718 44.9829L43.8582 48.1966Z" fill="white"/>
<path d="M42.9436 50.8921C41.0593 49.0078 41.0593 45.9545 42.9436 44.0702C44.8279 42.1859 47.8811 42.1859 49.7654 44.0702C50.9067 45.2115 51.9189 48.7294 52.5384 51.3235C52.8758 52.7377 51.611 54.0025 50.1969 53.6651C47.6046 53.0437 44.0867 52.0333 42.9436 50.8921Z" fill="white"/>
</svg>
