<svg width="110" height="36" viewBox="0 0 110 36" fill="none" xmlns="http://www.w3.org/2000/svg">
<path d="M13.4393 0H14.4097C17.7786 0.0740186 21.0925 1.44336 23.4726 3.86747C22.5938 4.7742 21.6967 5.64392 20.8362 6.55065C19.4996 5.32934 17.8884 4.3856 16.1307 4.05252C13.5309 3.49738 10.7296 3.997 8.55083 5.49588C6.17066 7.06878 4.55947 9.73345 4.2116 12.5832C3.82711 15.3959 4.6144 18.3566 6.42698 20.5402C8.16634 22.6682 10.8211 24.0005 13.5675 24.0931C16.1307 24.2411 18.8039 23.4454 20.6714 21.6319C22.1361 20.3551 22.8135 18.4121 23.0332 16.5247C19.9939 16.5247 16.9546 16.5432 13.9154 16.5247V12.7127H26.7133C27.3725 16.8022 26.4204 21.4099 23.3445 24.3336C21.2939 26.4061 18.456 27.6274 15.5632 27.868C12.7619 28.1456 9.86907 27.6089 7.37905 26.2396C4.39469 24.6297 2.01452 21.9095 0.842746 18.7082C-0.255793 15.766 -0.274102 12.4351 0.751201 9.47438C1.68496 6.7727 3.47924 4.3856 5.78617 2.72018C8.00156 1.07327 10.693 0.166542 13.4393 0Z" fill="#ACABC7"/>
<path d="M86.8589 0.96228H90.777V27.3869C89.4771 27.3869 88.1588 27.4054 86.8589 27.3684C86.8772 18.5787 86.8589 9.77048 86.8589 0.96228V0.96228Z" fill="#ACABC7"/>
<path d="M35.4277 10.1222C37.8445 9.65954 40.4627 10.1777 42.4584 11.6395C44.271 12.9348 45.5343 14.9703 45.9188 17.1909C46.4131 19.763 45.7906 22.5757 44.1428 24.6112C42.3668 26.8872 39.4557 28.1085 36.6178 27.9235C34.0179 27.7755 31.4913 26.4616 29.9533 24.3151C28.214 21.9465 27.7929 18.6897 28.7449 15.9141C29.697 12.9348 32.3884 10.6588 35.4277 10.1222V10.1222ZM35.977 13.638C34.9883 13.8971 34.0729 14.4707 33.4137 15.2849C31.6378 17.4314 31.7476 20.9288 33.7067 22.9273C34.8235 24.0746 36.508 24.6112 38.0642 24.2966C39.5106 24.0375 40.774 23.0568 41.4697 21.7615C42.6781 19.5595 42.3302 16.5247 40.481 14.8038C39.2909 13.6935 37.5516 13.2309 35.977 13.638Z" fill="#ACABC7"/>
<path d="M54.8338 10.1221C57.5985 9.58542 60.6195 10.3626 62.6884 12.3241C66.0573 15.3774 66.4234 21.0953 63.5489 24.6112C61.8096 26.8318 58.99 28.0531 56.207 27.9236C53.5522 27.8495 50.934 26.5172 49.3595 24.3151C47.5835 21.891 47.199 18.5602 48.206 15.729C49.213 12.8422 51.8495 10.6402 54.8338 10.1221V10.1221ZM55.3831 13.6379C54.3944 13.897 53.479 14.4707 52.8199 15.2664C51.0622 17.3759 51.1354 20.8178 53.0213 22.8348C54.1381 24.0376 55.8775 24.6297 57.4886 24.2966C58.9167 24.0191 60.1984 23.0568 60.8941 21.7615C62.0842 19.5409 61.7363 16.5062 59.8688 14.7852C58.6787 13.675 56.9394 13.2308 55.3831 13.6379Z" fill="#ACABC7"/>
<path d="M71.2958 11.1954C73.4013 9.86308 76.2026 9.49298 78.4729 10.6403C79.187 10.9548 79.7729 11.4915 80.3405 12.0281C80.3588 11.5285 80.3405 11.0104 80.3588 10.4922C81.5855 10.5107 82.8122 10.4922 84.0572 10.5107V26.8318C84.0389 29.2929 83.4164 31.9021 81.6587 33.697C79.7363 35.677 76.7885 36.2877 74.1337 35.8806C71.2958 35.455 68.8241 33.3639 67.7255 30.7178C68.8241 30.1811 69.9776 29.7555 71.1127 29.2559C71.7535 30.7733 73.0535 32.0686 74.683 32.3647C76.3125 32.6608 78.1983 32.2537 79.2602 30.8843C80.3954 29.478 80.3954 27.5535 80.3405 25.8326C79.4982 26.6653 78.5279 27.4055 77.3561 27.683C74.8111 28.4047 72.0099 27.5165 70.0508 25.777C68.0734 24.0376 66.9016 21.3544 67.0115 18.6898C67.0664 15.6735 68.7508 12.7683 71.2958 11.1954V11.1954ZM75.0858 13.564C73.9689 13.749 72.9253 14.3782 72.2113 15.2479C70.4902 17.3204 70.4902 20.6328 72.2296 22.6683C73.2182 23.8711 74.8111 24.5372 76.3491 24.3707C77.7955 24.2227 79.1321 23.2974 79.8461 22.0206C81.0545 19.8556 80.8531 16.9133 79.2236 15.0259C78.2166 13.8601 76.6054 13.2864 75.0858 13.564V13.564Z" fill="#ACABC7"/>
<path d="M95.4791 12.1391C97.6762 10.0666 101.063 9.36341 103.883 10.4552C106.556 11.4729 108.259 14.0451 109.119 16.6912C105.146 18.3567 101.192 20.0036 97.2185 21.669C97.7678 22.7238 98.61 23.686 99.7451 24.0746C101.338 24.6482 103.242 24.4447 104.579 23.3714C105.11 22.9643 105.531 22.4277 105.934 21.9096C106.941 22.5942 107.948 23.2604 108.955 23.9451C107.526 26.1101 105.128 27.6275 102.546 27.868C99.6902 28.2196 96.6509 27.1094 94.8017 24.8518C91.7624 21.2989 92.0554 15.3404 95.4791 12.1391V12.1391ZM97.4382 15.5625C96.8157 16.4692 96.5594 17.5795 96.5777 18.6712C99.2325 17.561 101.887 16.4507 104.542 15.3219C104.103 14.2856 103.041 13.6565 101.961 13.4899C100.221 13.1754 98.4086 14.1191 97.4382 15.5625V15.5625Z" fill="#ACABC7"/>
</svg>
