<svg version="1.1" id="Layer_1" xmlns="http://www.w3.org/2000/svg" xmlns:xlink="http://www.w3.org/1999/xlink" x="0px" y="0px"
	 width="100%" viewBox="0 0 632 632" enable-background="new 0 0 632 632" xml:space="preserve">
<path fill="#E7E6F1" opacity="1.000000" stroke="none" 
	d="
M1.000004,526.000000 
	C1.000000,351.042023 1.000000,176.084076 1.000000,1.063054 
	C211.574020,1.063054 422.148071,1.063054 633.000000,1.063054 
	C633.000000,201.692413 633.000000,402.384979 632.632935,603.519104 
	C623.815491,600.081360 615.454773,595.990784 606.899292,592.359070 
	C568.513123,576.064697 530.109680,559.809692 491.623047,543.754761 
	C482.143494,539.800354 472.328094,536.651062 462.804871,532.788818 
	C464.605255,529.379211 466.258698,526.307312 467.931946,523.246338 
	C475.253815,509.851807 482.134735,495.992279 480.675140,480.371307 
	C479.415741,466.893066 476.878662,453.364838 473.263550,440.313812 
	C467.092621,418.035858 461.708160,395.599304 463.665771,372.475159 
	C466.527252,338.674255 470.971405,305.010040 474.469238,271.259399 
	C476.776154,249.000107 477.167175,226.731644 473.206604,204.548416 
	C472.456512,200.347275 471.626221,195.869293 472.291260,191.754776 
	C476.104340,168.163651 470.276306,146.503738 459.640686,125.800285 
	C457.548126,121.726883 454.853302,117.509995 451.366852,114.673851 
	C403.505096,75.739296 349.930634,64.348602 291.568237,85.377899 
	C250.108261,100.316864 220.581955,129.085602 205.383774,171.197266 
	C198.656570,189.837250 197.802002,209.633728 194.999832,229.027969 
	C193.656052,238.328476 192.713821,247.686981 191.593018,256.992004 
	C176.161545,255.602341 165.382431,261.766754 161.327942,273.930450 
	C159.282669,280.066315 160.004349,286.161438 162.176010,292.039520 
	C165.515762,301.079376 171.990662,307.231415 180.845856,310.689423 
	C176.641312,328.082031 165.439987,338.842804 150.069214,346.061310 
	C139.860489,350.855560 129.432358,355.334900 119.740105,361.038757 
	C107.080841,368.488647 97.174347,379.020630 96.641472,394.504272 
	C96.328247,403.605560 98.890198,412.851654 100.551437,421.961029 
	C101.950645,429.633545 104.464027,437.128174 105.512932,444.833771 
	C107.453079,459.086670 100.229813,470.480896 86.593178,475.020355 
	C80.951225,476.898499 75.008774,478.155151 69.102730,478.907806 
	C48.722614,481.505035 30.956539,489.445984 17.037775,504.673126 
	C11.064127,511.208313 6.308846,518.857178 1.000004,526.000000 
z"/>
<path fill="#115E59" opacity="1.000000" stroke="none" 
	d="
M1.000004,526.468628 
	C6.308846,518.857178 11.064127,511.208313 17.037775,504.673126 
	C30.956539,489.445984 48.722614,481.505035 69.102730,478.907806 
	C75.008774,478.155151 80.951225,476.898499 86.593178,475.020355 
	C100.229813,470.480896 107.453079,459.086670 105.512932,444.833771 
	C104.464027,437.128174 101.950645,429.633545 100.551437,421.961029 
	C98.890198,412.851654 96.328247,403.605560 96.641472,394.504272 
	C97.174347,379.020630 107.080841,368.488647 119.740105,361.038757 
	C129.432358,355.334900 139.860489,350.855560 150.069214,346.061310 
	C165.439987,338.842804 176.641312,328.082031 180.845856,310.689423 
	C171.990662,307.231415 165.515762,301.079376 162.176010,292.039520 
	C160.004349,286.161438 159.282669,280.066315 161.327942,273.930450 
	C165.382431,261.766754 176.161545,255.602341 191.593018,256.992004 
	C192.713821,247.686981 193.656052,238.328476 194.999832,229.027969 
	C197.802002,209.633728 198.656570,189.837250 205.383774,171.197266 
	C220.581955,129.085602 250.108261,100.316864 291.568237,85.377899 
	C349.930634,64.348602 403.505096,75.739296 451.366852,114.673851 
	C454.853302,117.509995 457.548126,121.726883 459.640686,125.800285 
	C470.276306,146.503738 476.104340,168.163651 472.291260,191.754776 
	C471.626221,195.869293 472.456512,200.347275 473.206604,204.548416 
	C477.167175,226.731644 476.776154,249.000107 474.469238,271.259399 
	C470.971405,305.010040 466.527252,338.674255 463.665771,372.475159 
	C461.708160,395.599304 467.092621,418.035858 473.263550,440.313812 
	C476.878662,453.364838 479.415741,466.893066 480.675140,480.371307 
	C482.134735,495.992279 475.253815,509.851807 467.931946,523.246338 
	C466.258698,526.307312 464.605255,529.379211 462.427612,532.748779 
	C460.149536,532.635193 458.385193,532.224548 456.623810,531.801636 
	C443.774597,528.716675 430.925964,525.629211 417.852051,522.318970 
	C416.099060,519.216858 414.131622,519.499817 411.489990,521.249634 
	C401.667236,521.740234 392.306763,522.287537 382.943481,522.376465 
	C381.635925,492.048676 380.331207,462.179199 379.034271,432.487793 
	C383.880157,431.601746 388.364960,431.106659 392.668701,429.942291 
	C421.569855,422.123169 442.142822,405.630951 447.372101,374.692017 
	C449.274628,363.435791 449.441223,351.816833 449.615784,340.351410 
	C450.064453,310.883484 450.074249,281.408875 450.481110,251.742096 
	C450.489990,250.706314 450.277252,249.865356 450.072998,248.554276 
	C449.799377,223.026581 449.517303,197.969009 449.229614,172.413910 
	C439.546814,179.798401 430.666382,186.744385 421.603943,193.444122 
	C405.709717,205.194473 388.704193,214.826874 369.302734,219.538483 
	C356.009644,222.766693 342.758148,223.222504 329.214294,218.182831 
	C338.212585,204.657043 352.399292,196.026733 360.807159,181.245148 
	C351.970398,189.558548 344.355835,197.593384 335.828552,204.501617 
	C327.139526,211.540878 316.727112,215.115845 305.352966,215.940369 
	C309.390869,199.897415 315.220398,184.713715 312.964478,168.313507 
	C312.083618,168.995041 311.926331,169.787857 311.802917,170.585922 
	C308.700287,190.653290 301.539734,209.204224 289.397217,225.433670 
	C270.739746,250.370789 248.678909,269.534424 214.990265,265.352234 
	C214.990265,273.883911 214.676147,282.687073 215.040421,291.462067 
	C217.728149,356.206970 220.518677,420.947662 223.357178,485.686157 
	C223.977112,499.825226 224.920380,513.950134 225.325851,528.023682 
	C222.897354,526.171448 220.946289,524.260010 218.785599,522.625793 
	C217.447510,521.613770 215.631393,520.147156 214.303986,520.389038 
	C207.185944,521.686035 200.154022,523.455627 192.795837,524.988037 
	C190.991623,525.472412 189.483948,526.030884 187.576874,526.647278 
	C152.047577,536.777649 120.576042,553.379333 94.519165,579.333801 
	C79.042740,594.749451 66.948715,612.536255 59.000000,633.000000 
	C47.645771,633.000000 36.291542,633.000000 24.407217,632.664062 
	C20.326870,629.158386 16.435326,626.289673 13.308508,622.746216 
	C8.908412,617.759766 5.075483,612.272888 1.000011,607.000000 
	C1.000000,580.312439 1.000000,553.624878 1.000004,526.468628 
M200.184906,271.386932 
	C195.075989,265.663361 189.233353,261.452087 181.041061,263.480255 
	C170.383102,266.118835 164.696716,276.104309 167.412842,287.030060 
	C172.028625,305.597321 192.849579,309.595734 205.515610,305.296204 
	C206.522842,304.954285 207.728333,303.175629 207.694489,302.100769 
	C207.363907,291.597931 206.622055,281.142395 200.184906,271.386932 
M359.998596,180.536438 
	C360.221893,180.614670 360.445160,180.692917 360.668457,180.771164 
	C360.596680,180.544205 360.524902,180.317230 359.998596,180.536438 
z"/>
<path fill="#14B8A6" opacity="1.000000" stroke="none" 
	d="
M418.077148,522.542542 
	C430.925964,525.629211 443.774597,528.716675 456.623810,531.801636 
	C458.385193,532.224548 460.149536,532.635193 462.289795,533.091553 
	C472.328094,536.651062 482.143494,539.800354 491.623047,543.754761 
	C530.109680,559.809692 568.513123,576.064697 606.899292,592.359070 
	C615.454773,595.990784 623.815491,600.081360 632.632935,603.980347 
	C633.000000,613.659668 633.000000,623.319275 633.000000,633.000000 
	C441.979095,633.000000 250.958206,633.000000 59.468658,633.000000 
	C66.948715,612.536255 79.042740,594.749451 94.519165,579.333801 
	C120.576042,553.379333 152.047577,536.777649 187.695801,527.025146 
	C190.790070,531.979004 192.811707,537.044861 196.031097,541.177673 
	C218.326538,569.798950 247.676620,585.949341 283.927643,587.722839 
	C315.547699,589.269592 344.727661,579.919678 371.656860,563.654236 
	C389.599640,552.816711 405.251221,539.235535 418.077148,522.542542 
z"/>
<path fill="#14B8A6" opacity="1.000000" stroke="none" 
	d="
M1.000011,607.468689 
	C5.075483,612.272888 8.908412,617.759766 13.308508,622.746216 
	C16.435326,626.289673 20.326870,629.158386 23.938560,632.664062 
	C16.402472,633.000000 8.804945,633.000000 1.000000,633.000000 
	C1.000000,624.646912 1.000000,616.292175 1.000011,607.468689 
z"/>
<path fill="#FEFEFF" opacity="1.000000" stroke="none" 
	d="
M225.714737,528.081543 
	C224.920380,513.950134 223.977112,499.825226 223.357178,485.686157 
	C220.518677,420.947662 217.728149,356.206970 215.040421,291.462067 
	C214.676147,282.687073 214.990265,273.883911 214.990265,265.352234 
	C248.678909,269.534424 270.739746,250.370789 289.397217,225.433670 
	C301.539734,209.204224 308.700287,190.653290 311.802917,170.585922 
	C311.926331,169.787857 312.083618,168.995041 312.964478,168.313507 
	C315.220398,184.713715 309.390869,199.897415 305.352966,215.940369 
	C316.727112,215.115845 327.139526,211.540878 335.828552,204.501617 
	C344.355835,197.593384 351.970398,189.558548 360.807159,181.245148 
	C352.399292,196.026733 338.212585,204.657043 329.214294,218.182831 
	C342.758148,223.222504 356.009644,222.766693 369.302734,219.538483 
	C388.704193,214.826874 405.709717,205.194473 421.603943,193.444122 
	C430.666382,186.744385 439.546814,179.798401 449.229614,172.413910 
	C449.517303,197.969009 449.799377,223.026581 449.744873,248.455292 
	C439.262939,238.423233 421.779694,238.561707 416.760010,250.328186 
	C428.731049,244.840836 439.683167,246.219833 450.259460,251.936935 
	C450.074249,281.408875 450.064453,310.883484 449.615784,340.351410 
	C449.441223,351.816833 449.274628,363.435791 447.372101,374.692017 
	C442.142822,405.630951 421.569855,422.123169 392.668701,429.942291 
	C388.364960,431.106659 383.880157,431.601746 379.034271,432.487793 
	C380.331207,462.179199 381.635925,492.048676 382.531830,522.437012 
	C355.978485,526.574707 329.919922,531.165283 303.660828,533.489502 
	C284.392212,535.194885 264.842377,534.425842 245.456314,533.713318 
	C238.815765,533.469238 232.291916,530.050110 225.714737,528.081543 
M385.686890,265.572174 
	C389.934998,286.541046 394.183105,307.509918 398.492615,328.781921 
	C393.803162,329.617310 389.355011,330.205139 385.040436,331.313141 
	C383.870300,331.613647 383.103790,333.485718 382.152039,334.636505 
	C383.462769,335.363831 384.789062,336.718719 386.080963,336.686676 
	C388.700104,336.621704 391.300140,335.803375 393.908875,335.299896 
	C404.990662,333.161011 405.111938,333.137299 402.935822,322.281494 
	C399.117828,303.235352 395.174133,284.213989 391.136963,265.213257 
	C390.855011,263.886292 389.368134,262.815338 388.441559,261.625305 
	C387.480835,262.697235 386.520081,263.769135 385.686890,265.572174 
M346.843018,364.772888 
	C343.538239,362.013336 340.347534,359.097015 336.874359,356.568787 
	C335.416504,355.507599 333.360718,355.267914 331.576752,354.654755 
	C332.067993,356.624847 331.923767,359.212891 333.147186,360.470978 
	C347.967926,375.711792 365.951080,381.073853 386.768860,376.920166 
	C388.968567,376.481293 392.051361,376.190369 391.013641,372.938477 
	C390.700195,371.956207 387.420319,371.125854 385.777222,371.487793 
	C372.109619,374.498505 359.409943,372.313934 346.843018,364.772888 
M436.764130,255.983383 
	C433.852417,252.327606 430.278900,250.765808 425.828400,252.941132 
	C421.669525,254.973907 420.047974,259.928131 421.994904,263.991638 
	C423.828735,267.819153 428.625031,269.726929 432.525421,268.180237 
	C437.154053,266.344788 438.741119,262.339447 436.764130,255.983383 
M340.455536,263.572906 
	C341.748138,257.088593 339.218201,252.679810 333.824768,252.017838 
	C329.578491,251.496658 325.973541,253.894287 324.789368,258.117004 
	C323.654633,262.163269 325.001404,265.351135 328.541901,267.459473 
	C332.678680,269.922974 336.539734,268.777344 340.455536,263.572906 
M322.575134,243.976120 
	C320.876923,245.416168 319.178711,246.856232 317.480530,248.296280 
	C317.727112,248.831558 317.973694,249.366821 318.220276,249.902100 
	C329.264496,245.153839 340.005066,245.757950 350.895447,252.135529 
	C347.392548,242.059967 335.061066,238.741241 322.575134,243.976120 
z"/>
<path fill="#14B8A6" opacity="1.000000" stroke="none" 
	d="
M225.325851,528.023682 
	C232.291916,530.050110 238.815765,533.469238 245.456314,533.713318 
	C264.842377,534.425842 284.392212,535.194885 303.660828,533.489502 
	C329.919922,531.165283 355.978485,526.574707 382.534668,522.895325 
	C392.306763,522.287537 401.667236,521.740234 411.382690,521.541260 
	C402.745758,530.514038 394.445557,540.035645 384.635590,547.599121 
	C351.796326,572.917969 314.760315,586.809937 272.976532,580.734497 
	C237.735825,575.610474 210.093063,557.431396 193.092377,525.062073 
	C200.154022,523.455627 207.185944,521.686035 214.303986,520.389038 
	C215.631393,520.147156 217.447510,521.613770 218.785599,522.625793 
	C220.946289,524.260010 222.897354,526.171448 225.325851,528.023682 
z"/>
<path fill="#F7F7FF" opacity="1.000000" stroke="none" 
	d="
M192.795837,524.988037 
	C210.093063,557.431396 237.735825,575.610474 272.976532,580.734497 
	C314.760315,586.809937 351.796326,572.917969 384.635590,547.599121 
	C394.445557,540.035645 402.745758,530.514038 411.845032,521.598022 
	C414.131622,519.499817 416.099060,519.216858 417.852051,522.318970 
	C405.251221,539.235535 389.599640,552.816711 371.656860,563.654236 
	C344.727661,579.919678 315.547699,589.269592 283.927643,587.722839 
	C247.676620,585.949341 218.326538,569.798950 196.031097,541.177673 
	C192.811707,537.044861 190.790070,531.979004 188.095215,526.967163 
	C189.483948,526.030884 190.991623,525.472412 192.795837,524.988037 
z"/>
<path fill="#FCFCFD" opacity="1.000000" stroke="none" 
	d="
M200.419907,271.662994 
	C206.622055,281.142395 207.363907,291.597931 207.694489,302.100769 
	C207.728333,303.175629 206.522842,304.954285 205.515610,305.296204 
	C192.849579,309.595734 172.028625,305.597321 167.412842,287.030060 
	C164.696716,276.104309 170.383102,266.118835 181.041061,263.480255 
	C189.233353,261.452087 195.075989,265.663361 200.419907,271.662994 
z"/>
<path fill="#115E59" opacity="1.000000" stroke="none" 
	d="
M450.481110,251.742096 
	C439.683167,246.219833 428.731049,244.840836 416.760010,250.328186 
	C421.779694,238.561707 439.262939,238.423233 449.736389,248.925415 
	C450.277252,249.865356 450.489990,250.706314 450.481110,251.742096 
z"/>
<path fill="#115E59" opacity="1.000000" stroke="none" 
	d="
M360.225861,180.313354 
	C360.524902,180.317230 360.596680,180.544205 360.668457,180.771164 
	C360.445160,180.692917 360.221893,180.614670 360.225861,180.313354 
z"/>
<path fill="#115E59" opacity="1.000000" stroke="none" 
	d="
M385.623108,265.206604 
	C386.520081,263.769135 387.480835,262.697235 388.441559,261.625305 
	C389.368134,262.815338 390.855011,263.886292 391.136963,265.213257 
	C395.174133,284.213989 399.117828,303.235352 402.935822,322.281494 
	C405.111938,333.137299 404.990662,333.161011 393.908875,335.299896 
	C391.300140,335.803375 388.700104,336.621704 386.080963,336.686676 
	C384.789062,336.718719 383.462769,335.363831 382.152039,334.636505 
	C383.103790,333.485718 383.870300,331.613647 385.040436,331.313141 
	C389.355011,330.205139 393.803162,329.617310 398.492615,328.781921 
	C394.183105,307.509918 389.934998,286.541046 385.623108,265.206604 
z"/>
<path fill="#115E59" opacity="1.000000" stroke="none" 
	d="
M347.174377,364.927673 
	C359.409943,372.313934 372.109619,374.498505 385.777222,371.487793 
	C387.420319,371.125854 390.700195,371.956207 391.013641,372.938477 
	C392.051361,376.190369 388.968567,376.481293 386.768860,376.920166 
	C365.951080,381.073853 347.967926,375.711792 333.147186,360.470978 
	C331.923767,359.212891 332.067993,356.624847 331.576752,354.654755 
	C333.360718,355.267914 335.416504,355.507599 336.874359,356.568787 
	C340.347534,359.097015 343.538239,362.013336 347.174377,364.927673 
z"/>
<path fill="#115E59" opacity="1.000000" stroke="none" 
	d="
M436.918640,256.343231 
	C438.741119,262.339447 437.154053,266.344788 432.525421,268.180237 
	C428.625031,269.726929 423.828735,267.819153 421.994904,263.991638 
	C420.047974,259.928131 421.669525,254.973907 425.828400,252.941132 
	C430.278900,250.765808 433.852417,252.327606 436.918640,256.343231 
z"/>
<path fill="#115E59" opacity="1.000000" stroke="none" 
	d="
M340.277344,263.923889 
	C336.539734,268.777344 332.678680,269.922974 328.541901,267.459473 
	C325.001404,265.351135 323.654633,262.163269 324.789368,258.117004 
	C325.973541,253.894287 329.578491,251.496658 333.824768,252.017838 
	C339.218201,252.679810 341.748138,257.088593 340.277344,263.923889 
z"/>
<path fill="#115E59" opacity="1.000000" stroke="none" 
	d="
M322.910522,243.800201 
	C335.061066,238.741241 347.392548,242.059967 350.895447,252.135529 
	C340.005066,245.757950 329.264496,245.153839 318.220276,249.902100 
	C317.973694,249.366821 317.727112,248.831558 317.480530,248.296280 
	C319.178711,246.856232 320.876923,245.416168 322.910522,243.800201 
z"/>
</svg>