<svg version="1.1" id="Layer_1" xmlns="http://www.w3.org/2000/svg" xmlns:xlink="http://www.w3.org/1999/xlink" x="0px" y="0px"
	 width="100%" viewBox="0 0 144 144" enable-background="new 0 0 144 144" xml:space="preserve">
<path fill="#14b8a6" opacity="1.000000" stroke="none" 
	d="
M66.000000,145.000000 
	C44.000000,145.000000 22.500000,145.000000 1.000000,145.000000 
	C1.000000,97.000000 1.000000,49.000000 1.000000,1.000000 
	C49.000000,1.000000 97.000000,1.000000 145.000000,1.000000 
	C145.000000,49.000000 145.000000,97.000000 145.000000,145.000000 
	C118.833336,145.000000 92.666664,145.000000 66.000000,145.000000 
M42.133995,87.033272 
	C40.978062,91.650604 39.328903,96.212044 38.797592,100.900169 
	C38.203571,106.141655 42.815647,110.727997 47.743717,109.638062 
	C52.797836,108.520241 57.564999,106.104973 63.220818,104.503693 
	C66.081154,106.767342 69.008789,108.951767 71.787010,111.312065 
	C76.697113,115.483566 81.530220,114.790054 85.330406,109.510696 
	C89.835976,103.251381 91.744652,96.779076 87.948814,89.475761 
	C86.458359,86.608086 86.991814,84.201416 89.337753,81.842606 
	C93.088417,78.071365 96.424179,73.885849 100.195168,70.136826 
	C107.518410,62.856216 108.939781,53.947388 107.560059,44.306652 
	C107.011841,40.476063 105.001984,37.092461 100.816917,36.564537 
	C91.842300,35.432434 83.105095,35.858013 76.305779,43.104969 
	C71.752434,47.958088 67.160027,52.780254 62.771492,57.779884 
	C60.608116,60.244507 58.409573,61.087372 55.350761,59.667961 
	C47.545105,56.045815 41.153309,58.933914 35.305504,64.165565 
	C30.411495,68.543922 30.337460,72.577286 34.833988,77.404922 
	C37.511414,80.279495 39.933846,83.391586 42.133995,87.033272 
z"/>
<path fill="#14b8a6" opacity="0.600000" stroke="none" 
	d="
M42.470913,86.396896 
	C39.933846,83.391586 37.511414,80.279495 34.833988,77.404922 
	C30.337460,72.577286 30.411495,68.543922 35.305504,64.165565 
	C41.153309,58.933914 47.545105,56.045815 55.350761,59.667961 
	C58.409573,61.087372 60.608116,60.244507 62.771492,57.779884 
	C67.160027,52.780254 71.752434,47.958088 76.305779,43.104969 
	C83.105095,35.858013 91.842300,35.432434 100.816917,36.564537 
	C105.001984,37.092461 107.011841,40.476063 107.560059,44.306652 
	C108.939781,53.947388 107.518410,62.856216 100.195168,70.136826 
	C96.424179,73.885849 93.088417,78.071365 89.337753,81.842606 
	C86.991814,84.201416 86.458359,86.608086 87.948814,89.475761 
	C91.744652,96.779076 89.835976,103.251381 85.330406,109.510696 
	C81.530220,114.790054 76.697113,115.483566 71.787010,111.312065 
	C69.008789,108.951767 66.081154,106.767342 62.900375,104.095863 
	C56.660206,98.016380 50.762005,92.321739 44.778648,86.718040 
	C44.315441,86.284225 43.254196,86.488960 42.470913,86.396896 
M92.738365,51.704090 
	C87.600060,48.277248 83.183289,48.476101 79.854897,52.284153 
	C77.045876,55.497978 77.128105,60.981060 80.032883,64.153236 
	C83.221985,67.635887 88.389725,68.029861 92.186981,65.079826 
	C96.061142,62.070023 96.442398,57.493015 92.738365,51.704090 
z"/>
<path fill="#EBEBFF" opacity="1.000000" stroke="none" 
	d="
M42.302452,86.715088 
	C43.254196,86.488960 44.315441,86.284225 44.778648,86.718040 
	C50.762005,92.321739 56.660206,98.016380 62.518845,103.972794 
	C57.564999,106.104973 52.797836,108.520241 47.743717,109.638062 
	C42.815647,110.727997 38.203571,106.141655 38.797592,100.900169 
	C39.328903,96.212044 40.978062,91.650604 42.302452,86.715088 
z"/>
<path fill="#ECECFF" opacity="1.000000" stroke="none" 
	d="
M92.997131,51.975616 
	C96.442398,57.493015 96.061142,62.070023 92.186981,65.079826 
	C88.389725,68.029861 83.221985,67.635887 80.032883,64.153236 
	C77.128105,60.981060 77.045876,55.497978 79.854897,52.284153 
	C83.183289,48.476101 87.600060,48.277248 92.997131,51.975616 
z"/>
</svg>