<svg version="1.1" id="Layer_1" xmlns="http://www.w3.org/2000/svg" xmlns:xlink="http://www.w3.org/1999/xlink" x="0px" y="0px"
	 width="100%" viewBox="0 0 144 144" enable-background="new 0 0 144 144" xml:space="preserve">
<path fill="#FFFFFF" opacity="1.000000" stroke="none" 
	d="
M64.000000,145.000000 
	C42.666668,145.000000 21.833334,145.000000 1.000000,145.000000 
	C1.000000,97.000000 1.000000,49.000000 1.000000,1.000000 
	C49.000000,1.000000 97.000000,1.000000 145.000000,1.000000 
	C145.000000,49.000000 145.000000,97.000000 145.000000,145.000000 
	C118.166664,145.000000 91.333336,145.000000 64.000000,145.000000 
M52.147991,80.952560 
	C48.717262,80.401039 45.262386,79.332123 41.864792,79.490669 
	C39.803257,79.586853 37.021099,81.136177 36.071789,82.862534 
	C35.302662,84.261215 36.268738,87.256378 37.403503,88.892715 
	C38.740318,90.820427 41.088432,92.046829 43.196190,94.263802 
	C47.173485,97.509888 51.150784,100.755974 55.129265,104.688614 
	C56.707134,106.297417 58.031055,108.401169 59.933540,109.377281 
	C61.877220,110.374535 65.169029,111.322723 66.455109,110.373825 
	C68.081650,109.173737 68.979080,106.017258 68.921936,103.736397 
	C68.841614,100.530128 67.594597,97.353088 66.970398,93.425278 
	C68.898315,91.318794 70.826225,89.212303 73.255409,87.563606 
	C79.540298,93.255524 85.668510,99.138641 92.219131,104.506271 
	C93.877502,105.865150 97.195343,106.509377 99.196396,105.835693 
	C102.282593,104.796692 102.398712,101.658791 101.515442,98.615532 
	C98.276604,87.456230 95.120880,76.272789 92.210022,64.471611 
	C96.916397,59.120079 101.822395,53.927769 106.261147,48.362778 
	C109.382446,44.449520 108.431480,39.073338 104.778236,36.444401 
	C101.108284,33.803444 95.992386,34.746578 92.801125,38.293621 
	C88.266693,43.333580 83.515587,48.178593 78.087959,52.949673 
	C66.968292,50.928234 55.879204,48.698391 44.703506,47.058868 
	C42.432091,46.725647 38.930962,47.916973 37.594151,49.642818 
	C35.472652,52.381695 37.484585,55.149036 39.958225,57.331001 
	C46.325329,62.947342 52.583538,68.687134 58.810608,75.012177 
	C56.855293,77.022728 54.899979,79.033272 52.147991,80.952560 
z"/>
<path fill="#C3C1FF" opacity="1.000000" stroke="none" 
	d="
M55.128082,104.002060 
	C51.150784,100.755974 47.173485,97.509888 43.236656,93.645447 
	C46.499638,89.032669 49.722149,85.038246 52.944664,81.043823 
	C54.899979,79.033272 56.855293,77.022728 59.211121,74.640610 
	C66.026772,67.214996 72.441917,60.160946 78.857056,53.106899 
	C83.515587,48.178593 88.266693,43.333580 92.801125,38.293621 
	C95.992386,34.746578 101.108284,33.803444 104.778236,36.444401 
	C108.431480,39.073338 109.382446,44.449520 106.261147,48.362778 
	C101.822395,53.927769 96.916397,59.120079 91.760468,64.883102 
	C85.608505,71.395607 79.867065,77.461121 74.247650,83.637650 
	C73.446739,84.517967 73.237320,85.936424 72.754143,87.105820 
	C70.826225,89.212303 68.898315,91.318794 66.560837,93.707626 
	C64.883080,94.895424 63.493668,95.672539 62.371437,96.732529 
	C59.885757,99.080299 57.534283,101.570152 55.128082,104.002060 
z"/>
<path fill="#14b8a6" opacity="1.000000" stroke="none" 
	d="
M73.004776,87.334717 
	C73.237320,85.936424 73.446739,84.517967 74.247650,83.637650 
	C79.867065,77.461121 85.608505,71.395607 91.622391,65.196518 
	C95.120880,76.272789 98.276604,87.456230 101.515442,98.615532 
	C102.398712,101.658791 102.282593,104.796692 99.196396,105.835693 
	C97.195343,106.509377 93.877502,105.865150 92.219131,104.506271 
	C85.668510,99.138641 79.540298,93.255524 73.004776,87.334717 
z"/>
<path fill="#14b8a6" opacity="1.000000" stroke="none" 
	d="
M78.472504,53.028286 
	C72.441917,60.160946 66.026772,67.214996 59.248447,74.323318 
	C52.583538,68.687134 46.325329,62.947342 39.958225,57.331001 
	C37.484585,55.149036 35.472652,52.381695 37.594151,49.642818 
	C38.930962,47.916973 42.432091,46.725647 44.703506,47.058868 
	C55.879204,48.698391 66.968292,50.928234 78.472504,53.028286 
z"/>
<path fill="#14b8a6" opacity="1.000000" stroke="none" 
	d="
M52.546326,80.998192 
	C49.722149,85.038246 46.499638,89.032669 43.137589,93.302200 
	C41.088432,92.046829 38.740318,90.820427 37.403503,88.892715 
	C36.268738,87.256378 35.302662,84.261215 36.071789,82.862534 
	C37.021099,81.136177 39.803257,79.586853 41.864792,79.490669 
	C45.262386,79.332123 48.717262,80.401039 52.546326,80.998192 
z"/>
<path fill="#14b8a6" opacity="1.000000" stroke="none" 
	d="
M55.128670,104.345337 
	C57.534283,101.570152 59.885757,99.080299 62.371437,96.732529 
	C63.493668,95.672539 64.883080,94.895424 66.498901,94.076752 
	C67.594597,97.353088 68.841614,100.530128 68.921936,103.736397 
	C68.979080,106.017258 68.081650,109.173737 66.455109,110.373825 
	C65.169029,111.322723 61.877220,110.374535 59.933540,109.377281 
	C58.031055,108.401169 56.707134,106.297417 55.128670,104.345337 
z"/>
</svg>