<svg version="1.1" id="Layer_1" xmlns="http://www.w3.org/2000/svg" xmlns:xlink="http://www.w3.org/1999/xlink" x="0px" y="0px"
	 width="100%" viewBox="0 0 144 144" enable-background="new 0 0 144 144" xml:space="preserve">
<path fill="#14b8a6" opacity="1.000000" stroke="none" 
	d="
M66.000000,145.000000 
	C44.000000,145.000000 22.500000,145.000000 1.000000,145.000000 
	C1.000000,97.000000 1.000000,49.000000 1.000000,1.000000 
	C49.000000,1.000000 97.000000,1.000000 145.000000,1.000000 
	C145.000000,49.000000 145.000000,97.000000 145.000000,145.000000 
	C118.833336,145.000000 92.666664,145.000000 66.000000,145.000000 
M46.638702,84.911194 
	C46.651394,86.060158 46.657280,87.209236 46.677860,88.358055 
	C46.849712,97.952766 50.043983,101.068329 59.516628,100.850502 
	C60.990433,100.816612 62.462021,100.686569 64.249641,101.234520 
	C67.830109,104.694534 71.156181,108.478203 75.050407,111.539024 
	C80.951447,116.177185 87.843803,114.065010 90.091339,106.941818 
	C96.198311,87.586723 102.161217,68.184319 107.959946,48.734699 
	C110.362732,40.675499 104.669846,35.226097 96.496590,37.512440 
	C93.300507,38.406490 90.219917,39.714977 87.090073,40.843967 
	C71.127220,46.602074 55.135906,52.283215 39.217690,58.162224 
	C32.746269,60.552292 30.087357,67.330772 34.075695,72.095512 
	C37.758713,76.495499 42.434826,80.064209 46.638702,84.911194 
z"/>
<path fill="#14b8a6" opacity="0.600000" stroke="none" 
	d="
M46.673546,83.999039 
	C42.434826,80.064209 37.758713,76.495499 34.075695,72.095512 
	C30.087357,67.330772 32.746269,60.552292 39.217690,58.162224 
	C55.135906,52.283215 71.127220,46.602074 87.090073,40.843967 
	C90.219917,39.714977 93.300507,38.406490 96.496590,37.512440 
	C104.669846,35.226097 110.362732,40.675499 107.959946,48.734699 
	C102.161217,68.184319 96.198311,87.586723 90.091339,106.941818 
	C87.843803,114.065010 80.951447,116.177185 75.050407,111.539024 
	C71.156181,108.478203 67.830109,104.694534 64.144684,100.592743 
	C72.355003,87.091255 80.718246,74.261909 88.912132,61.325306 
	C89.741020,60.016651 89.548073,58.060787 89.829330,56.405273 
	C88.064148,56.660580 86.271179,56.802322 84.546730,57.224174 
	C83.802238,57.406296 83.210297,58.182919 82.530609,58.663376 
	C70.579948,67.110992 58.626438,75.554581 46.673546,83.999039 
z"/>
<path fill="#EDEDFF" opacity="1.000000" stroke="none" 
	d="
M46.656124,84.455109 
	C58.626438,75.554581 70.579948,67.110992 82.530609,58.663376 
	C83.210297,58.182919 83.802238,57.406296 84.546730,57.224174 
	C86.271179,56.802322 88.064148,56.660580 89.829330,56.405273 
	C89.548073,58.060787 89.741020,60.016651 88.912132,61.325306 
	C80.718246,74.261909 72.355003,87.091255 63.987183,100.275986 
	C62.462021,100.686569 60.990433,100.816612 59.516628,100.850502 
	C50.043983,101.068329 46.849712,97.952766 46.677860,88.358055 
	C46.657280,87.209236 46.651394,86.060158 46.656124,84.455109 
z"/>
</svg>