<svg width="72" height="72" viewBox="0 0 72 72" fill="none" xmlns="http://www.w3.org/2000/svg">
<rect width="72" height="72" fill="#14b8a6"/>
<path opacity="0.35" d="M17.1834 26.5422C17.652 30.0317 19.4865 38.0516 26.719 45.2841C33.9515 52.5165 41.9692 54.351 45.4609 54.8197C47.9899 55.3665 50.7322 54.6719 52.6976 52.7065C55.7713 49.6328 44.6376 38.4992 41.5639 41.5729L39.6027 43.534L28.4691 32.4003L30.4281 30.4392C33.5018 27.3655 22.3681 16.2318 19.2944 19.3055C17.329 21.2709 16.6345 24.0131 17.1834 26.5422Z" fill="white"/>
<path d="M19.3008 19.2992L30.4324 30.4308C33.4997 27.355 33.4997 22.3771 30.426 19.3034C27.3565 16.234 22.3766 16.2318 19.3008 19.2992Z" fill="white"/>
<path d="M41.5684 41.5665L52.6999 52.6981C55.7673 49.6244 55.7673 44.6444 52.6936 41.5708C49.622 38.5013 44.6442 38.4992 41.5684 41.5665Z" fill="white"/>
</svg>
