<svg width="142" height="36" viewBox="0 0 142 36" fill="none" xmlns="http://www.w3.org/2000/svg">
<path d="M15.4541 1.03684C13.6275 1.24373 10.8876 2.10311 9.32874 2.96249C5.14021 5.23827 2.30587 8.78721 0.888697 13.5138C0.605263 14.4369 0.27459 16.9514 0.290336 18.129C0.290336 19.1635 0.605263 21.6939 0.794219 22.2986C0.888697 22.5851 1.0934 23.2694 1.26661 23.7946C1.55004 24.6858 2.91997 27.4868 3.15617 27.6778C3.20341 27.7255 3.45535 28.0438 3.69155 28.4098C4.27416 29.2851 5.80156 30.8447 6.95104 31.736C7.83283 32.4203 10.3208 33.8685 10.6357 33.8844C10.7144 33.8844 10.7302 33.2797 10.6829 32.4839C10.5727 30.7174 10.9034 28.3143 11.612 25.8635C11.7379 25.4497 11.8324 24.9086 11.8324 24.6699C11.8324 24.4312 11.8954 24.1766 11.9741 24.097C12.0529 24.0015 12.1946 23.54 12.2733 23.0625C12.3678 22.5851 12.5252 21.853 12.6355 21.4393C12.7929 20.8186 12.7772 20.5799 12.5567 19.9115C12.2418 18.8929 12.2261 17.2378 12.541 16.4421C13.2811 14.5483 14.0999 13.8321 15.4856 13.8321C17.1547 13.8321 17.9577 15.1053 17.6428 17.2378C17.5011 18.2086 17.1074 19.7364 16.8555 20.2138C16.7925 20.3571 16.6823 20.7549 16.635 21.0891C16.5721 21.4393 16.4461 21.9326 16.3673 22.2032C16.1469 22.8238 16.5721 24.0333 17.1389 24.4949C17.6743 24.9245 18.7923 25.0519 19.8158 24.8131C20.5401 24.654 20.8393 24.463 21.5951 23.731C22.4927 22.8397 23.1698 21.8053 23.1698 21.3119C23.1698 21.1687 23.2485 20.9777 23.343 20.8823C23.7839 20.4366 24.0201 16.9673 23.6894 15.5031C23.3272 13.8958 22.2092 12.3202 20.7606 11.3972C19.3119 10.4582 16.3201 10.1877 14.4778 10.8243C13.1866 11.2699 12.0371 12.0179 11.297 12.8932C10.6357 13.673 9.94284 14.9461 9.94284 15.3917C9.94284 15.5509 9.86411 15.7578 9.76963 15.8533C9.67516 15.9487 9.56493 16.5535 9.51769 17.206C9.43896 18.1768 9.50195 18.6224 9.78538 19.5773C9.97434 20.2298 10.3208 20.9937 10.5255 21.2801C10.9506 21.853 10.9506 22.0758 10.557 23.6036C10.4467 24.0174 10.2578 24.3994 10.1475 24.4471C9.15553 24.8291 7.13999 22.426 6.4629 20.0388C6.21096 19.1317 6.19521 15.901 6.44716 14.9461C6.55738 14.5483 6.74634 14.0072 6.87231 13.7207C6.99828 13.4502 7.1085 13.1796 7.1085 13.116C7.1085 13.0523 7.42343 12.5112 7.81709 11.9224C9.86411 8.80313 13.1866 7.14802 17.3909 7.14802C18.3514 7.14802 19.3434 7.21167 19.6111 7.29125C21.7841 7.97557 22.3667 8.19837 23.217 8.70764C24.8704 9.71025 26.0671 11.0789 27.2638 13.3706C27.3425 13.5138 27.4528 13.8958 27.5 14.2141C27.563 14.5324 27.6732 14.8347 27.752 14.8825C27.8307 14.9302 27.8937 15.9647 27.8937 17.1901C27.8937 19.4022 27.7362 20.2934 27.0749 22.1077C26.3348 24.097 24.4295 26.2932 22.6974 27.1526C21.7054 27.63 19.8473 28.1552 19.1072 28.1552C18.1152 28.1552 16.1626 27.3276 15.6273 26.6592C15.3753 26.3569 15.1391 26.4683 15.1391 26.8979C15.1391 27.0571 15.0761 27.3276 14.9817 27.4868C14.9029 27.63 14.7612 28.0756 14.6825 28.4735C14.2258 30.5742 13.5802 32.2771 12.5882 33.8685C12.289 34.3619 12.541 34.6483 13.3598 34.7597C13.7692 34.8234 14.3203 34.9348 14.5723 35.0144C15.2021 35.2212 18.6191 35.1894 19.7686 34.9825C20.8078 34.7915 22.4927 34.3141 23.2485 33.9958C28.0039 32.0224 31.6098 28.012 33.1687 22.9034C34.0032 20.182 34.0505 17.015 33.2947 13.8321C33.0427 12.7977 32.964 12.559 32.2869 10.9675C31.3106 8.64398 29.1061 5.9226 26.8702 4.25157C24.9491 2.81926 23.0595 1.99171 20.115 1.27555C19.2962 1.08458 16.3831 0.925435 15.4541 1.03684ZM57.4496 6.78198C56.8354 6.87747 55.8592 7.896 55.6072 8.69172C55.3395 9.56702 55.6072 10.506 56.363 11.238C58.0322 12.8772 60.9295 11.3335 60.5673 8.97819C60.3469 7.48222 58.9927 6.52735 57.4496 6.78198ZM40.286 7.72094C40.1443 7.88008 40.1443 27.073 40.3018 27.2958C40.3805 27.4231 41.0576 27.4709 42.3803 27.455L44.3486 27.439L44.4273 24.2084C44.4903 21.5825 44.5533 20.9459 44.7423 20.8345C44.8682 20.7549 45.939 20.6754 47.12 20.6754C49.7024 20.6754 50.7888 20.4844 51.9698 19.8478C53.513 19.0043 54.4105 17.7948 54.8986 15.8692C55.1978 14.6597 55.1978 13.7844 54.8829 12.543C54.5995 11.429 54.4735 11.1585 53.7964 10.2513C52.9618 9.12142 52.1115 8.50075 50.7259 8.0074C49.9543 7.75277 49.3087 7.70502 45.1359 7.65728C42.5378 7.62545 40.349 7.65728 40.286 7.72094ZM48.9308 11.6837C49.9858 12.0179 50.5054 12.4953 50.7416 13.3547C51.0408 14.4846 50.8203 15.535 50.159 16.1716C49.4347 16.8559 48.7891 17.015 46.6791 17.015C45.2934 17.015 44.8682 16.9673 44.6793 16.7604C44.4746 16.5694 44.4273 16.1079 44.4273 14.2936C44.4273 11.429 44.4116 11.4449 46.6003 11.4449C47.5451 11.4449 48.4584 11.5404 48.9308 11.6837ZM76.5499 10.7447C76.5499 11.8428 76.4711 12.8772 76.3924 13.0523C76.2822 13.2592 76.0617 13.3547 75.6838 13.3547C75.4004 13.3547 75.1327 13.4183 75.1012 13.5138C75.0855 13.5934 75.0854 14.1504 75.1327 14.7392C75.2114 15.7896 75.2272 15.8055 75.6996 15.9169C75.9672 15.9647 76.2664 16.0602 76.3609 16.1238C76.5026 16.2034 76.5499 17.4606 76.5499 20.6435C76.5499 24.9245 76.5656 25.0837 76.912 25.7203C77.6364 27.073 78.7701 27.5504 81.0691 27.4868L82.6122 27.439L82.6594 25.8953L82.7067 24.3357H82.313C81.7147 24.3357 80.8329 23.8583 80.7384 23.4763C80.6911 23.2853 80.6439 21.5984 80.6439 19.7046C80.6439 17.0946 80.6911 16.2193 80.8486 16.092C80.9588 15.9965 81.3997 15.901 81.8249 15.8692L82.6122 15.8214V13.4343L81.7462 13.3865C81.2738 13.3547 80.8329 13.2433 80.7699 13.1478C80.7069 13.0364 80.6439 12.0019 80.6439 10.8402V8.73947H76.5499V10.7447ZM135.079 8.83495C135.016 8.89861 134.969 9.90123 134.969 11.063C134.969 13.3229 134.953 13.3547 134.087 13.3547C133.693 13.3547 133.693 13.3706 133.741 14.5801C133.788 15.7896 133.804 15.8214 134.213 15.8692C134.433 15.901 134.701 16.0124 134.78 16.1079C134.874 16.2193 134.969 18.145 135.016 20.5958C135.063 22.9511 135.142 25.0996 135.205 25.3542C135.394 26.0545 136.37 26.9457 137.299 27.2481C138.339 27.5982 140.984 27.63 141.252 27.2958C141.378 27.1526 141.425 26.5797 141.393 25.7521L141.346 24.4153L140.795 24.3198C140.197 24.2243 139.519 23.906 139.346 23.6355C139.283 23.54 139.22 21.8053 139.22 19.7841C139.22 15.6305 139.126 15.901 140.496 15.901C141.393 15.901 141.472 15.7419 141.393 14.2936L141.346 13.4343L140.323 13.3547L139.299 13.2751L139.22 11.0471L139.142 8.81904L137.158 8.7713C136.071 8.75538 135.142 8.78721 135.079 8.83495ZM68.7554 12.9727C67.9839 13.1796 67.0863 13.7048 66.4879 14.3255C65.7636 15.0894 65.5747 15.0416 65.4959 14.0708L65.4487 13.4343H61.5121V27.439L63.4961 27.4709C65.4487 27.5186 65.4959 27.5027 65.5904 27.1526C65.6376 26.9616 65.6849 24.9405 65.6849 22.6488C65.6849 18.1131 65.7006 17.9858 66.6297 17.0946C67.0391 16.6967 67.2595 16.6172 68.1413 16.5694L69.1648 16.5058L69.7789 17.1583C70.5033 17.9221 70.4245 17.1901 70.4875 23.7787C70.5033 25.5293 70.519 27.073 70.5348 27.2321C70.5662 27.455 70.8182 27.4868 72.5818 27.455L74.5816 27.439V16.267L74.1249 15.3599C73.3376 13.7844 72.1251 13.0364 70.2671 12.9409C69.6057 12.925 68.9286 12.925 68.7554 12.9727ZM88.4383 12.9727C86.7377 13.4343 85.9189 13.8958 84.8639 14.9461C83.4468 16.3944 82.8012 18.0813 82.8012 20.3571C82.8169 24.3516 85.2891 27.3117 88.9422 27.6618C92.06 27.9642 94.4692 27.0412 96.0123 24.9564C96.2328 24.654 96.7052 23.6832 96.7052 23.5081C96.7052 23.4445 95.7919 23.3808 94.6896 23.3808H92.6741L92.2017 23.8742C91.6506 24.4471 90.879 24.8131 90.1704 24.8131C89.4619 24.8131 88.3754 24.3039 87.8715 23.7628C87.4936 23.3331 86.9424 22.0918 86.9424 21.6621C86.9424 21.5188 88.0919 21.4711 91.7923 21.4711C94.4534 21.4711 96.7052 21.4074 96.8154 21.3438C97.0516 21.1846 96.8311 18.6542 96.4847 17.7312C95.7761 15.8055 94.4377 14.1822 93.0835 13.6093C92.6899 13.4502 92.2332 13.2433 92.0758 13.1637C91.7451 12.9886 88.9422 12.8454 88.4383 12.9727ZM91.5089 16.458C92.123 16.8877 92.6584 17.9062 92.5796 18.4792C92.5324 18.8452 92.5009 18.8452 89.8398 18.8929C86.7692 18.9407 86.7535 18.9248 87.2416 17.7789C87.5881 16.9832 88.2809 16.267 88.9265 16.0601C89.6666 15.8214 90.8633 16.0124 91.5089 16.458ZM111.743 12.9727C109.916 13.4661 108.641 14.2777 107.649 15.535C107.255 16.0442 106.94 16.5217 106.94 16.6172C106.94 16.6967 106.83 16.9832 106.688 17.2537C106.547 17.5084 106.342 18.3041 106.232 19.0203C105.681 22.426 107.192 25.6089 110.027 27.0412L111.113 27.5982H113.396C115.758 27.5982 115.963 27.5504 117.412 26.7706C118.467 26.1977 120.199 23.9697 119.931 23.5241C119.868 23.4445 118.971 23.3808 117.916 23.3808H115.979L115.585 23.8424C114.01 25.6407 111.066 24.7177 110.436 22.2191C110.342 21.8849 110.342 21.5984 110.42 21.5347C110.499 21.487 112.751 21.4552 115.443 21.4711C119.285 21.4711 120.325 21.4393 120.34 21.2801C120.482 19.2908 119.537 16.3466 118.356 15.0735C117.695 14.3573 116.546 13.5616 115.979 13.4183C115.727 13.3547 115.443 13.2433 115.333 13.1637C115.113 12.9886 112.231 12.8454 111.743 12.9727ZM114.199 16.0761C114.908 16.3307 115.727 17.2219 115.853 17.9062C116.042 18.9407 116.057 18.9407 113.129 18.8929C110.499 18.8452 110.483 18.8452 110.436 18.4792C110.373 18.0336 110.924 16.9354 111.397 16.5217C112.074 15.9487 113.255 15.7578 114.199 16.0761ZM125.442 12.9727C122.214 13.7525 121.049 14.9143 121.033 17.3333C121.033 19.9433 122.324 21.0414 126.151 21.7257C128.78 22.1872 129.536 22.601 129.505 23.6036C129.489 24.3198 129.001 24.7813 128.025 24.9882C126.796 25.2587 125.836 24.9564 125.064 24.0811L124.45 23.3808H122.545C121.002 23.3808 120.64 23.4286 120.64 23.6036C120.64 24.0652 121.269 25.2747 121.789 25.8794C122.277 26.4046 122.655 26.6592 124.135 27.3754C124.277 27.455 125.049 27.5823 125.82 27.6778C127.253 27.8528 129.741 27.6937 130.371 27.3754C130.513 27.3117 130.922 27.1048 131.268 26.9457C132.166 26.516 133.016 25.5452 133.331 24.6222C133.678 23.5718 133.583 22.1077 133.095 21.0891C132.512 19.8956 130.969 19.0362 128.67 18.6224C125.71 18.0972 125.663 18.0813 125.19 17.6198C124.623 17.0309 124.623 16.824 125.19 16.1875C125.647 15.6782 125.678 15.6623 126.938 15.6623C128.198 15.6623 128.229 15.6782 128.686 16.1875C128.938 16.4739 129.143 16.8081 129.143 16.9354C129.143 17.1264 129.473 17.1742 131.111 17.1742C133.284 17.1742 133.221 17.2219 132.843 16.092C132.15 14.0867 130.371 13.0682 127.411 12.9568C126.497 12.925 125.615 12.925 125.442 12.9727ZM104.5 13.3069C103.807 13.5457 102.846 14.3414 102.547 14.9143C102.248 15.4872 101.98 15.2485 101.901 14.2936L101.823 13.4343H97.8862L97.8389 20.1184C97.8232 23.7946 97.8389 26.9616 97.8862 27.1685C97.9649 27.5186 98.0121 27.5186 99.9017 27.4868C100.988 27.4709 101.87 27.3754 101.933 27.2799C101.996 27.2003 102.059 25.5134 102.059 23.54C102.059 20.4207 102.09 19.8637 102.358 19.1635C102.909 17.7153 104.09 16.8559 105.57 16.8559C105.98 16.8559 106.153 16.7763 106.2 16.5694C106.31 16.1079 106.326 13.9594 106.232 13.482C106.137 13.1 106.059 13.0364 105.633 13.0523C105.35 13.0682 104.846 13.1796 104.5 13.3069ZM56.0009 13.5457C55.9536 13.6571 55.9379 16.7922 55.9536 20.5162L56.0009 27.2799L57.8747 27.3595C59.0084 27.4072 59.8272 27.3754 59.9532 27.2799C60.1264 27.1526 60.1737 25.7998 60.1737 20.3889C60.1894 16.6967 60.1422 13.5934 60.0949 13.5138C59.9375 13.2751 56.0796 13.3069 56.0009 13.5457Z" fill="#ACABC7"/>
</svg>
