<svg version="1.1" id="Layer_1" xmlns="http://www.w3.org/2000/svg" xmlns:xlink="http://www.w3.org/1999/xlink" x="0px" y="0px"
	 width="100%" viewBox="0 0 632 632" enable-background="new 0 0 632 632" xml:space="preserve">
<path fill="#E7E6F1" opacity="1.000000" stroke="none" 
	d="
M77.000000,633.000000 
	C51.672138,633.000000 26.344275,633.000000 1.012309,633.000000 
	C1.008206,422.384308 1.008206,211.768600 1.008206,1.076446 
	C211.570190,1.076446 422.140411,1.076446 632.855347,1.076446 
	C632.855347,211.666595 632.855347,422.333282 632.855347,633.000000 
	C625.593994,633.000000 618.262024,633.000000 610.361206,632.675598 
	C575.190674,608.896423 540.749146,585.200623 505.937958,562.060913 
	C476.636688,542.583740 446.233337,525.048523 412.509888,513.456787 
	C411.632538,513.201599 410.965790,513.075317 409.918640,512.853760 
	C398.736267,510.930511 387.934265,509.102509 377.107819,506.775635 
	C377.083344,486.347839 377.083344,466.418945 377.083344,446.508240 
	C378.194183,446.260040 378.835968,446.123505 379.474518,445.973083 
	C416.824677,437.175049 439.242096,410.824158 439.142212,373.879272 
	C439.061188,343.905090 437.888123,313.913879 436.412231,283.968994 
	C434.878967,252.859818 432.380310,221.798492 430.406372,190.709717 
	C430.325745,189.439423 430.901550,187.619629 431.829346,186.869736 
	C444.491577,176.635605 449.489105,162.689011 451.284058,147.187820 
	C456.749390,99.990166 411.284027,61.189667 365.393829,73.628731 
	C353.025818,76.981216 342.825470,84.051559 332.474792,90.980118 
	C320.327576,99.111252 307.120667,102.020287 292.605225,100.480614 
	C280.873810,99.236252 268.994324,97.558388 257.298889,98.207153 
	C236.572586,99.356895 227.468796,108.771622 223.633209,124.466888 
	C222.769562,128.000946 221.602127,131.529236 220.035355,134.802048 
	C218.700485,137.590454 216.590363,140.007736 214.823212,142.589203 
	C214.198792,142.436722 213.574356,142.284241 212.949921,142.131760 
	C211.250122,132.657593 209.550308,123.183426 207.707703,112.913353 
	C202.477127,124.717873 206.266632,134.889450 210.926300,145.639893 
	C197.747086,136.227264 190.089920,134.625122 184.346008,139.424561 
	C191.407364,141.428879 198.646942,143.483795 205.886520,145.538712 
	C205.822403,146.149689 205.758270,146.760666 205.694153,147.371643 
	C202.653473,147.931046 199.611603,148.483978 196.572372,149.051147 
	C189.560074,150.359726 182.081848,150.534958 175.617661,153.183533 
	C146.205902,165.234436 145.847839,202.998795 167.793915,220.143250 
	C182.534317,231.658600 189.700272,244.497940 185.030960,263.128937 
	C183.917160,267.573151 183.998489,271.966278 179.163376,274.814758 
	C176.733154,276.246429 175.069702,279.619934 173.915695,282.462799 
	C169.723221,292.790863 170.227936,303.311981 173.736084,313.720490 
	C176.857697,322.982178 183.397919,329.053009 192.853180,330.877197 
	C199.565109,332.172150 206.593018,331.829254 213.773788,332.233978 
	C213.806747,332.608887 213.923965,333.754700 214.005997,334.903015 
	C216.237366,366.139465 218.497818,397.373901 220.683517,428.613556 
	C222.520462,454.868561 224.269653,481.129700 225.601593,507.395447 
	C222.186462,507.520874 219.071060,507.074524 216.292694,507.844452 
	C188.821060,515.457520 164.570602,529.181335 144.042587,548.760742 
	C135.735977,556.683533 129.678619,566.944885 122.462029,576.034241 
	C107.355728,595.060730 92.159386,614.015686 77.000000,633.000000 
z"/>
<path fill="#115E59" opacity="1.000000" stroke="none" 
	d="
M412.720459,513.585632 
	C446.233337,525.048523 476.636688,542.583740 505.937958,562.060913 
	C540.749146,585.200623 575.190674,608.896423 609.896179,632.675598 
	C432.645782,633.000000 255.291550,633.000000 77.468658,633.000000 
	C92.159386,614.015686 107.355728,595.060730 122.462029,576.034241 
	C129.678619,566.944885 135.735977,556.683533 144.042587,548.760742 
	C164.570602,529.181335 188.821060,515.457520 216.292694,507.844452 
	C219.071060,507.074524 222.186462,507.520874 225.879761,507.585632 
	C228.691055,508.248322 230.768066,508.728149 233.097382,509.470398 
	C234.454941,510.096436 235.542892,510.527954 236.667877,510.813690 
	C266.644287,518.427856 297.079071,521.167664 327.789673,517.572510 
	C342.248505,515.879944 356.467407,512.137390 371.186829,509.333435 
	C373.429840,508.653564 375.281067,507.964020 377.132294,507.274475 
	C387.934265,509.102509 398.736267,510.930511 409.795746,513.187256 
	C397.391296,528.138245 381.342438,537.047668 362.943390,542.083435 
	C325.899048,552.222473 288.579895,551.546143 251.250870,544.654480 
	C253.896118,536.935181 256.471436,529.547913 258.769135,522.075378 
	C258.970490,521.420532 257.514709,519.805725 256.517181,519.397034 
	C255.891632,519.140747 254.014374,520.142944 253.839447,520.859131 
	C251.905655,528.776123 250.195557,536.747803 248.039764,544.482422 
	C236.031296,540.767395 224.394455,537.317810 212.813156,533.690796 
	C211.984863,533.431458 211.563354,531.873047 211.333862,530.943970 
	C213.445587,530.893616 215.791870,531.514343 216.800583,530.622375 
	C221.264786,526.674927 225.448822,522.388000 229.475693,517.987366 
	C230.283279,517.104858 229.963364,515.190552 230.163315,513.752014 
	C228.585159,513.950073 226.510422,513.579773 225.517227,514.447510 
	C221.778381,517.713867 218.271286,521.273804 214.925705,524.949768 
	C213.332047,526.700806 212.296616,528.960022 210.710999,531.260864 
	C204.980606,529.003906 200.527725,525.537720 198.174393,519.724487 
	C197.768341,518.721497 196.013962,518.264343 194.882385,517.555054 
	C194.273117,518.921509 192.830338,520.615601 193.214035,521.591736 
	C194.280182,524.304199 195.729736,527.067749 197.699722,529.186279 
	C204.355072,536.343628 213.124557,540.158020 222.170059,543.068115 
	C266.556183,557.347717 311.654633,559.350647 357.121857,549.428833 
	C377.362976,545.011902 396.189148,537.062683 410.340240,520.989807 
	C411.910797,519.205994 411.963715,516.085938 412.720459,513.585632 
M284.960938,529.671997 
	C284.964722,534.649231 284.797028,539.636841 285.097260,544.596130 
	C285.169037,545.781494 286.800690,546.872375 287.714935,548.006714 
	C288.686493,546.895386 290.447235,545.819092 290.498352,544.666870 
	C290.777466,538.374695 290.805298,532.055603 290.498810,525.766296 
	C290.436584,524.489075 288.569092,523.299805 287.533844,522.069946 
	C286.678650,523.295105 285.636993,524.436707 285.036804,525.776123 
	C284.664917,526.606018 284.963379,527.736328 284.960938,529.671997 
M318.879852,525.743347 
	C317.596008,524.547485 316.312134,523.351562 315.028290,522.155701 
	C314.484863,523.976807 313.245178,525.914734 313.527557,527.597290 
	C314.399994,532.796021 315.631775,537.966614 317.210449,542.995483 
	C317.703705,544.566772 319.741180,545.653320 321.071777,546.961731 
	C321.589172,545.128113 322.783478,543.180176 322.496613,541.482422 
	C321.646149,536.448853 320.211792,531.513855 318.879852,525.743347 
M346.021973,528.418091 
	C344.976868,526.162537 344.222992,523.691284 342.773804,521.735107 
	C341.947693,520.619873 339.986847,520.345276 338.536926,519.692139 
	C338.269012,521.135803 337.370575,522.839661 337.840729,523.978760 
	C340.050171,529.332275 342.483002,534.611694 345.198242,539.725281 
	C345.843018,540.939514 347.883057,541.413025 349.281281,542.227295 
	C349.639130,540.698303 350.632965,538.968689 350.226654,537.680786 
	C349.288635,534.707520 347.671448,531.948547 346.021973,528.418091 
M369.541595,524.993225 
	C371.019562,526.999512 372.295288,529.216919 374.068268,530.915161 
	C374.852692,531.666565 376.764526,531.740845 377.922546,531.368958 
	C378.422241,531.208496 378.879272,528.768555 378.379303,527.995972 
	C375.494446,523.538269 372.432831,519.178223 369.136047,515.018921 
	C368.525391,514.248535 366.567047,514.546326 365.230713,514.351135 
	C365.083344,515.671997 364.402557,517.255920 364.897766,518.259827 
	C365.986603,520.467163 367.669800,522.381348 369.541595,524.993225 
z"/>
<path fill="#115E59" opacity="1.000000" stroke="none" 
	d="
M232.845062,509.207977 
	C230.768066,508.728149 228.691055,508.248322 226.335876,507.578308 
	C224.269653,481.129700 222.520462,454.868561 220.683517,428.613556 
	C218.497818,397.373901 216.237366,366.139465 214.005997,334.903015 
	C213.923965,333.754700 213.806747,332.608887 213.773788,332.233978 
	C206.593018,331.829254 199.565109,332.172150 192.853180,330.877197 
	C183.397919,329.053009 176.857697,322.982178 173.736084,313.720490 
	C170.227936,303.311981 169.723221,292.790863 173.915695,282.462799 
	C175.069702,279.619934 176.733154,276.246429 179.163376,274.814758 
	C183.998489,271.966278 183.917160,267.573151 185.030960,263.128937 
	C189.700272,244.497940 182.534317,231.658600 167.793915,220.143250 
	C145.847839,202.998795 146.205902,165.234436 175.617661,153.183533 
	C182.081848,150.534958 189.560074,150.359726 196.572372,149.051147 
	C199.611603,148.483978 202.653473,147.931046 205.694153,147.371643 
	C205.758270,146.760666 205.822403,146.149689 205.886520,145.538712 
	C198.646942,143.483795 191.407364,141.428879 184.346008,139.424561 
	C190.089920,134.625122 197.747086,136.227264 210.926300,145.639893 
	C206.266632,134.889450 202.477127,124.717873 207.707703,112.913353 
	C209.550308,123.183426 211.250122,132.657593 212.949921,142.131760 
	C213.574356,142.284241 214.198792,142.436722 214.823212,142.589203 
	C216.590363,140.007736 218.700485,137.590454 220.035355,134.802048 
	C221.602127,131.529236 222.769562,128.000946 223.633209,124.466888 
	C227.468796,108.771622 236.572586,99.356895 257.298889,98.207153 
	C268.994324,97.558388 280.873810,99.236252 292.605225,100.480614 
	C307.120667,102.020287 320.327576,99.111252 332.474792,90.980118 
	C342.825470,84.051559 353.025818,76.981216 365.393829,73.628731 
	C411.284027,61.189667 456.749390,99.990166 451.284058,147.187820 
	C449.489105,162.689011 444.491577,176.635605 431.829346,186.869736 
	C430.901550,187.619629 430.325745,189.439423 430.406372,190.709717 
	C432.380310,221.798492 434.878967,252.859818 436.412231,283.968994 
	C437.888123,313.913879 439.061188,343.905090 439.142212,373.879272 
	C439.242096,410.824158 416.824677,437.175049 379.474518,445.973083 
	C378.835968,446.123505 378.194183,446.260040 377.083344,446.508240 
	C377.083344,466.418945 377.083344,486.347839 377.107819,506.775604 
	C375.281067,507.964020 373.429840,508.653564 371.162048,508.837952 
	C370.745453,486.026703 370.745453,463.720612 370.745453,441.106018 
	C372.106842,440.815338 373.868317,440.437408 375.630615,440.063416 
	C377.417053,439.684296 379.243744,439.439423 380.985260,438.912476 
	C406.980499,431.046722 426.303589,416.087067 431.351746,388.003967 
	C433.361725,376.822601 433.220795,365.086823 432.749725,353.657410 
	C431.042023,312.225220 428.849518,270.812256 426.683502,229.400208 
	C426.016541,216.648804 424.849731,203.923553 423.880005,190.754593 
	C394.085846,201.533951 365.782776,197.035278 337.579315,185.508087 
	C319.059662,177.938843 299.590118,173.053986 279.366882,173.131516 
	C269.892975,173.167831 261.851074,175.723267 259.746155,186.641479 
	C259.435547,188.252487 258.634857,189.764435 258.118286,191.341019 
	C252.743256,207.746399 244.251114,221.560349 227.841644,227.921677 
	C227.841644,236.556778 228.261536,244.723358 227.742981,252.829910 
	C226.970016,264.913452 226.525452,277.220947 217.967194,287.192932 
	C217.259094,288.018036 217.257782,289.678650 217.343399,290.922455 
	C219.276337,319.001617 221.250549,347.077911 223.251373,375.152344 
	C226.436111,419.838501 229.645889,464.522858 232.845062,509.207977 
M206.294052,284.220032 
	C206.153122,281.256470 206.012192,278.292908 205.846634,274.811279 
	C201.843063,274.811279 198.045837,274.495789 194.319031,274.874115 
	C185.367615,275.782867 179.533844,280.544312 178.514954,289.411102 
	C177.734497,296.202972 177.892776,303.471100 179.477081,310.085907 
	C182.347580,322.070923 195.796219,328.627106 208.075317,324.879852 
	C207.487778,311.689301 206.896683,298.418915 206.294052,284.220032 
z"/>
<path fill="#F8F8FF" opacity="1.000000" stroke="none" 
	d="
M412.509888,513.456787 
	C411.963715,516.085938 411.910797,519.205994 410.340240,520.989807 
	C396.189148,537.062683 377.362976,545.011902 357.121857,549.428833 
	C311.654633,559.350647 266.556183,557.347717 222.170059,543.068115 
	C213.124557,540.158020 204.355072,536.343628 197.699722,529.186279 
	C195.729736,527.067749 194.280182,524.304199 193.214035,521.591736 
	C192.830338,520.615601 194.273117,518.921509 194.882385,517.555054 
	C196.013962,518.264343 197.768341,518.721497 198.174393,519.724487 
	C200.527725,525.537720 204.980606,529.003906 210.703979,531.238159 
	C210.994232,530.943604 210.952698,530.918701 210.952698,530.918701 
	C211.563354,531.873047 211.984863,533.431458 212.813156,533.690796 
	C224.394455,537.317810 236.031296,540.767395 248.281891,544.587402 
	C249.641739,544.931030 250.374268,544.947449 251.106812,544.963806 
	C288.579895,551.546143 325.899048,552.222473 362.943390,542.083435 
	C381.342438,537.047668 397.391296,528.138245 410.176147,513.282471 
	C410.965790,513.075317 411.632538,513.201599 412.509888,513.456787 
z"/>
<path fill="#FEFEFF" opacity="1.000000" stroke="none" 
	d="
M233.097382,509.470398 
	C229.645889,464.522858 226.436111,419.838501 223.251373,375.152344 
	C221.250549,347.077911 219.276337,319.001617 217.343399,290.922455 
	C217.257782,289.678650 217.259094,288.018036 217.967194,287.192932 
	C226.525452,277.220947 226.970016,264.913452 227.742981,252.829910 
	C228.261536,244.723358 227.841644,236.556778 227.841644,227.921677 
	C244.251114,221.560349 252.743256,207.746399 258.118286,191.341019 
	C258.634857,189.764435 259.435547,188.252487 259.746155,186.641479 
	C261.851074,175.723267 269.892975,173.167831 279.366882,173.131516 
	C299.590118,173.053986 319.059662,177.938843 337.579315,185.508087 
	C365.782776,197.035278 394.085846,201.533951 423.880005,190.754593 
	C424.849731,203.923553 426.016541,216.648804 426.683502,229.400208 
	C428.849518,270.812256 431.042023,312.225220 432.749725,353.657410 
	C433.220795,365.086823 433.361725,376.822601 431.351746,388.003967 
	C426.303589,416.087067 406.980499,431.046722 380.985260,438.912476 
	C379.243744,439.439423 377.417053,439.684296 375.630615,440.063416 
	C373.868317,440.437408 372.106842,440.815338 370.745453,441.106018 
	C370.745453,463.720612 370.745453,486.026703 370.770233,508.828247 
	C356.467407,512.137390 342.248505,515.879944 327.789673,517.572510 
	C297.079071,521.167664 266.644287,518.427856 236.667877,510.813690 
	C235.542892,510.527954 234.454941,510.096436 233.097382,509.470398 
M372.420837,295.220367 
	C374.657104,302.485382 376.893402,309.750366 379.180725,317.181122 
	C374.887207,319.457855 370.845184,321.384460 367.074921,323.745087 
	C366.066559,324.376434 365.888336,326.333618 365.329010,327.682129 
	C366.772522,327.931335 368.490540,328.808136 369.610840,328.318207 
	C373.860565,326.459778 377.839294,323.986755 382.071106,322.080414 
	C385.198120,320.671783 385.618530,318.763123 384.667603,315.708923 
	C378.747864,296.696472 372.952026,277.645447 367.110474,258.608612 
	C366.440460,256.425110 366.060242,253.380402 362.861847,254.716751 
	C361.920410,255.110107 361.449005,258.442047 361.916534,260.102142 
	C365.155853,271.603912 368.699982,283.019836 372.420837,295.220367 
M325.583588,355.975677 
	C340.345306,364.679962 356.557404,368.415894 373.430878,369.630371 
	C374.971741,369.741241 376.652466,367.909332 378.268219,366.979584 
	C376.854736,365.998871 375.563049,364.472076 374.008179,364.125336 
	C363.211823,361.717590 352.215851,360.079651 341.575714,357.138855 
	C333.803162,354.990570 326.241425,351.644135 321.665710,344.063293 
	C321.200897,343.293213 319.154297,343.477905 317.841736,343.219513 
	C317.635101,344.574677 316.760620,346.448334 317.339386,347.193817 
	C319.648071,350.167786 322.409088,352.790680 325.583588,355.975677 
M329.576080,254.763931 
	C317.102081,252.188950 303.411896,255.278030 301.125519,261.183563 
	C307.611267,264.767120 333.269409,263.257996 338.716797,258.251373 
	C335.641388,257.022308 333.023346,255.976059 329.576080,254.763931 
M418.301086,276.476044 
	C417.032745,269.951569 412.562134,266.655426 407.342316,268.396149 
	C403.354614,269.726013 400.830658,273.663727 401.420746,277.634583 
	C402.019745,281.665314 405.545654,284.854126 409.567596,285.002502 
	C413.945618,285.164062 416.936005,282.466949 418.301086,276.476044 
M312.981293,273.787659 
	C311.089417,277.705872 311.437714,281.755920 314.975281,283.984161 
	C317.373779,285.494904 321.591064,286.225647 323.946777,285.104004 
	C326.301239,283.982941 328.708588,280.061554 328.592682,277.480011 
	C328.476074,274.883942 325.785034,271.576141 323.314270,270.107269 
	C319.618073,267.909912 316.006989,269.806305 312.981293,273.787659 
M397.045563,251.412292 
	C397.424072,252.677170 397.532074,254.864746 398.222076,255.067047 
	C407.053253,257.656219 416.009155,259.000427 425.090637,256.238831 
	C425.442841,256.131714 425.633575,255.493713 425.873352,255.141556 
	C420.632904,247.908813 407.368622,245.971558 397.045563,251.412292 
z"/>
<path fill="#F3F3FF" opacity="1.000000" stroke="none" 
	d="
M251.250870,544.654480 
	C250.374268,544.947449 249.641739,544.931030 248.667053,544.809631 
	C250.195557,536.747803 251.905655,528.776123 253.839447,520.859131 
	C254.014374,520.142944 255.891632,519.140747 256.517181,519.397034 
	C257.514709,519.805725 258.970490,521.420532 258.769135,522.075378 
	C256.471436,529.547913 253.896118,536.935181 251.250870,544.654480 
z"/>
<path fill="#F0F0FF" opacity="1.000000" stroke="none" 
	d="
M284.960938,529.201904 
	C284.963379,527.736328 284.664917,526.606018 285.036804,525.776123 
	C285.636993,524.436707 286.678650,523.295105 287.533844,522.069946 
	C288.569092,523.299805 290.436584,524.489075 290.498810,525.766296 
	C290.805298,532.055603 290.777466,538.374695 290.498352,544.666870 
	C290.447235,545.819092 288.686493,546.895386 287.714905,548.006714 
	C286.800690,546.872375 285.169037,545.781494 285.097260,544.596130 
	C284.797028,539.636841 284.964722,534.649231 284.960938,529.201904 
z"/>
<path fill="#F6F6FF" opacity="1.000000" stroke="none" 
	d="
M318.942780,526.141846 
	C320.211792,531.513855 321.646149,536.448853 322.496613,541.482422 
	C322.783478,543.180176 321.589172,545.128113 321.071777,546.961731 
	C319.741180,545.653320 317.703705,544.566772 317.210449,542.995483 
	C315.631775,537.966614 314.399994,532.796021 313.527557,527.597290 
	C313.245178,525.914734 314.484863,523.976807 315.028290,522.155701 
	C316.312134,523.351562 317.596008,524.547485 318.942780,526.141846 
z"/>
<path fill="#F4F3FF" opacity="1.000000" stroke="none" 
	d="
M346.175873,528.760376 
	C347.671448,531.948547 349.288635,534.707520 350.226654,537.680786 
	C350.632965,538.968689 349.639130,540.698303 349.281311,542.227295 
	C347.883057,541.413025 345.843018,540.939514 345.198242,539.725281 
	C342.483002,534.611694 340.050171,529.332275 337.840729,523.978760 
	C337.370575,522.839661 338.269012,521.135803 338.536926,519.692139 
	C339.986847,520.345276 341.947693,520.619873 342.773804,521.735107 
	C344.222992,523.691284 344.976868,526.162537 346.175873,528.760376 
z"/>
<path fill="#F5F5FF" opacity="1.000000" stroke="none" 
	d="
M211.001266,530.966309 
	C212.296616,528.960022 213.332047,526.700806 214.925705,524.949768 
	C218.271286,521.273804 221.778381,517.713867 225.517227,514.447510 
	C226.510422,513.579773 228.585159,513.950073 230.163315,513.752014 
	C229.963364,515.190552 230.283279,517.104858 229.475693,517.987366 
	C225.448822,522.388000 221.264786,526.674927 216.800583,530.622375 
	C215.791870,531.514343 213.445587,530.893616 211.333862,530.943970 
	C210.952698,530.918701 210.994232,530.943604 211.001266,530.966309 
z"/>
<path fill="#F6F6FF" opacity="1.000000" stroke="none" 
	d="
M369.325989,524.704224 
	C367.669800,522.381348 365.986603,520.467163 364.897766,518.259827 
	C364.402557,517.255920 365.083344,515.671997 365.230713,514.351135 
	C366.567047,514.546326 368.525391,514.248535 369.136047,515.018921 
	C372.432831,519.178223 375.494446,523.538269 378.379303,527.995972 
	C378.879272,528.768555 378.422241,531.208496 377.922546,531.368958 
	C376.764526,531.740845 374.852692,531.666565 374.068268,530.915161 
	C372.295288,529.216919 371.019562,526.999512 369.325989,524.704224 
z"/>
<path fill="#FDFDFE" opacity="1.000000" stroke="none" 
	d="
M206.299805,284.684265 
	C206.896683,298.418915 207.487778,311.689301 208.075317,324.879852 
	C195.796219,328.627106 182.347580,322.070923 179.477081,310.085907 
	C177.892776,303.471100 177.734497,296.202972 178.514954,289.411102 
	C179.533844,280.544312 185.367615,275.782867 194.319031,274.874115 
	C198.045837,274.495789 201.843063,274.811279 205.846634,274.811279 
	C206.012192,278.292908 206.153122,281.256470 206.299805,284.684265 
z"/>
<path fill="#115E59" opacity="1.000000" stroke="none" 
	d="
M372.283569,294.841858 
	C368.699982,283.019836 365.155853,271.603912 361.916534,260.102142 
	C361.449005,258.442047 361.920410,255.110107 362.861847,254.716751 
	C366.060242,253.380402 366.440460,256.425110 367.110474,258.608612 
	C372.952026,277.645447 378.747864,296.696472 384.667603,315.708923 
	C385.618530,318.763123 385.198120,320.671783 382.071106,322.080414 
	C377.839294,323.986755 373.860565,326.459778 369.610840,328.318207 
	C368.490540,328.808136 366.772522,327.931335 365.329010,327.682129 
	C365.888336,326.333618 366.066559,324.376434 367.074921,323.745087 
	C370.845184,321.384460 374.887207,319.457855 379.180725,317.181122 
	C376.893402,309.750366 374.657104,302.485382 372.283569,294.841858 
z"/>
<path fill="#115E59" opacity="1.000000" stroke="none" 
	d="
M325.293152,355.759583 
	C322.409088,352.790680 319.648071,350.167786 317.339386,347.193817 
	C316.760620,346.448334 317.635101,344.574677 317.841736,343.219513 
	C319.154297,343.477905 321.200897,343.293213 321.665710,344.063293 
	C326.241425,351.644135 333.803162,354.990570 341.575714,357.138855 
	C352.215851,360.079651 363.211823,361.717590 374.008179,364.125336 
	C375.563049,364.472076 376.854736,365.998871 378.268219,366.979584 
	C376.652466,367.909332 374.971741,369.741241 373.430878,369.630371 
	C356.557404,368.415894 340.345306,364.679962 325.293152,355.759583 
z"/>
<path fill="#115E59" opacity="1.000000" stroke="none" 
	d="
M329.990692,254.846863 
	C333.023346,255.976059 335.641388,257.022308 338.716797,258.251373 
	C333.269409,263.257996 307.611267,264.767120 301.125519,261.183563 
	C303.411896,255.278030 317.102081,252.188950 329.990692,254.846863 
z"/>
<path fill="#115E59" opacity="1.000000" stroke="none" 
	d="
M418.261047,276.836853 
	C416.936005,282.466949 413.945618,285.164062 409.567596,285.002502 
	C405.545654,284.854126 402.019745,281.665314 401.420746,277.634583 
	C400.830658,273.663727 403.354614,269.726013 407.342316,268.396149 
	C412.562134,266.655426 417.032745,269.951569 418.261047,276.836853 
z"/>
<path fill="#115E59" opacity="1.000000" stroke="none" 
	d="
M313.173645,273.452637 
	C316.006989,269.806305 319.618073,267.909912 323.314270,270.107269 
	C325.785034,271.576141 328.476074,274.883942 328.592682,277.480011 
	C328.708588,280.061554 326.301239,283.982941 323.946777,285.104004 
	C321.591064,286.225647 317.373779,285.494904 314.975281,283.984161 
	C311.437714,281.755920 311.089417,277.705872 313.173645,273.452637 
z"/>
<path fill="#115E59" opacity="1.000000" stroke="none" 
	d="
M397.322815,251.161987 
	C407.368622,245.971558 420.632904,247.908813 425.873352,255.141556 
	C425.633575,255.493713 425.442841,256.131714 425.090637,256.238831 
	C416.009155,259.000427 407.053253,257.656219 398.222076,255.067047 
	C397.532074,254.864746 397.424072,252.677170 397.322815,251.161987 
z"/>
</svg>