<svg width="72" height="72" viewBox="0 0 72 72" fill="none" xmlns="http://www.w3.org/2000/svg">
<rect width="72" height="72" fill="#14B8A6"/>
<path opacity="0.35" d="M35.7145 59.9287C48.93 59.9287 59.6433 49.2154 59.6433 35.9999C59.6433 22.7843 48.93 12.071 35.7145 12.071C22.4989 12.071 11.7856 22.7843 11.7856 35.9999C11.7856 49.2154 22.4989 59.9287 35.7145 59.9287Z" fill="white"/>
<path d="M33.3216 45.5713C32.7091 45.5713 32.0965 45.3368 31.6299 44.8702L24.4512 37.6916C23.5156 36.7559 23.5156 35.2436 24.4512 34.308C25.3868 33.3724 26.8991 33.3724 27.8348 34.308L33.3216 39.7949L43.5943 29.5223C44.5299 28.5867 46.0422 28.5867 46.9778 29.5223C47.9134 30.4579 47.9134 31.9702 46.9778 32.9058L35.0134 44.8702C34.5468 45.3368 33.9342 45.5713 33.3216 45.5713Z" fill="white"/>
</svg>
