<svg width="72" height="72" viewBox="0 0 72 72" fill="none" xmlns="http://www.w3.org/2000/svg">
<rect width="72" height="72" fill="#14B8A6"/>
<path d="M41.0789 17.7184C40.7214 17.7184 31.28 17.7184 30.9225 17.7184C29.2406 17.7184 27.8756 19.0834 27.8756 20.7653C27.8756 22.4472 29.2406 23.8122 30.9225 23.8122C31.28 23.8122 40.7214 23.8122 41.0789 23.8122C42.7608 23.8122 44.1259 22.4472 44.1259 20.7653C44.1259 19.0834 42.7608 17.7184 41.0789 17.7184Z" fill="white"/>
<path opacity="0.35" d="M42.0946 31.4662V19.7498H29.9069V31.4662L23.9979 38.0313H48.0036L42.0946 31.4662Z" fill="white"/>
<path opacity="0.35" d="M50.2198 52.2502H23.8131V40.0625H48.1885L50.2198 52.2502Z" fill="white"/>
<path d="M54.9992 45.805L48.0035 38.0312H23.9978L17.0001 45.805C15.4908 47.4828 15.2491 49.8736 16.4476 51.8643C17.3901 53.4263 19.1796 54.2815 21.0037 54.2815H33.6911H38.3102H50.9976C52.8217 54.2815 54.6113 53.4263 55.5517 51.8643C56.7522 49.8736 56.5085 47.4828 54.9992 45.805ZM45.1414 50.2189C43.4595 50.2189 42.0945 48.8539 42.0945 47.172C42.0945 45.4901 43.4595 44.1251 45.1414 44.1251C46.8233 44.1251 48.1883 45.4901 48.1883 47.172C48.1883 48.8539 46.8233 50.2189 45.1414 50.2189ZM29.9068 46.1564C28.7856 46.1564 27.8755 45.2464 27.8755 44.1251C27.8755 43.0038 28.7856 42.0938 29.9068 42.0938C31.0281 42.0938 31.9381 43.0038 31.9381 44.1251C31.9381 45.2464 31.0281 46.1564 29.9068 46.1564Z" fill="white"/>
</svg>
