<svg width="72" height="72" viewBox="0 0 72 72" fill="none" xmlns="http://www.w3.org/2000/svg">
<rect width="72" height="72" fill="#14B8A6"/>
<path opacity="0.35" d="M46.7429 55.3374H25.257C21.6968 55.3374 18.8113 52.4518 18.8113 48.8916V23.1086C18.8113 19.5484 21.6968 16.6628 25.257 16.6628H42.4457L53.1886 29.5544V48.8916C53.1886 52.4518 50.3031 55.3374 46.7429 55.3374Z" fill="white"/>
<path d="M42.4458 25.2572V16.6628L53.1887 29.5544H46.743C44.3688 29.5544 42.4458 27.6314 42.4458 25.2572Z" fill="white"/>
<path d="M36 31.7029C34.2209 31.7029 32.7771 33.1467 32.7771 34.9258V43.5201C32.7771 45.2991 34.2209 46.743 36 46.743C37.779 46.743 39.2229 45.2991 39.2229 43.5201V34.9258C39.2229 33.1467 37.779 31.7029 36 31.7029Z" fill="white"/>
<path d="M45.6687 33.8516C43.8897 33.8516 42.4458 35.2954 42.4458 37.0744V43.5202C42.4458 45.2992 43.8897 46.7431 45.6687 46.7431C47.4477 46.7431 48.8916 45.2992 48.8916 43.5202V37.0744C48.8916 35.2954 47.4477 33.8516 45.6687 33.8516Z" fill="white"/>
<path d="M26.3315 38.1487C24.5525 38.1487 23.1086 39.5925 23.1086 41.3716V43.5201C23.1086 45.2992 24.5525 46.743 26.3315 46.743C28.1105 46.743 29.5544 45.2992 29.5544 43.5201V41.3716C29.5544 39.5925 28.1105 38.1487 26.3315 38.1487Z" fill="white"/>
</svg>
