<svg width="72" height="72" viewBox="0 0 72 72" fill="none" xmlns="http://www.w3.org/2000/svg">
<rect width="72" height="72" fill="#14B8A6"/>
<path opacity="0.35" d="M36 21.75C36 19.1261 33.7119 17 30.888 17C28.3831 17 26.3076 18.6777 25.87 20.8874C22.361 21.3149 19.6414 24.0737 19.6414 27.45C19.6414 27.7635 19.6946 28.0637 19.7416 28.3658C17.2122 30.0967 15.5518 32.8593 15.5518 36C15.5518 39.1407 17.2122 41.9033 19.7416 43.6342C19.6946 43.9363 19.6414 44.2365 19.6414 44.55C19.6414 47.9263 22.361 50.6851 25.87 51.1126C26.3076 53.3223 28.3831 55 30.888 55C33.7119 55 36 52.8739 36 50.25C36 49.9688 42.1345 49.3 46.2242 45.5C49.4571 42.4961 52.3587 34.1 48.269 28.4C44.1794 22.7 36 22.0426 36 21.75Z" fill="white"/>
<path d="M25.7758 39.8C24.645 39.8 23.731 40.6493 23.731 41.7C23.731 42.7507 24.645 43.6 25.7758 43.6C26.6919 43.6 27.8206 44.6488 27.8206 45.5C27.8206 46.5507 28.7347 47.4 29.8654 47.4C30.9962 47.4 31.9103 46.5507 31.9103 45.5C31.9103 42.5702 28.9289 39.8 25.7758 39.8Z" fill="white"/>
<path d="M56.4482 36C56.4482 32.8593 54.7878 30.0967 52.2584 28.3658C52.3054 28.0637 52.3586 27.7635 52.3586 27.45C52.3586 24.0737 49.6389 21.3149 46.13 20.8874C45.6924 18.6777 43.6169 17 41.112 17C38.2881 17 35.9999 19.1261 35.9999 21.75C35.9999 21.8944 35.9999 22.2288 35.9999 22.7C35.9999 28.0599 30.8858 28.3886 29.8552 28.4C28.7306 28.4057 27.8206 29.2531 27.8206 30.3C27.8206 31.3507 28.7347 32.2 29.8654 32.2C31.5504 32.2 33.949 31.7383 35.9999 30.4539C35.9999 32.2133 35.9999 34.1 35.9999 35.9905C36.0122 36.9481 36.366 41.7 42.1344 41.7C43.2652 41.7 44.1792 42.5493 44.1792 43.6C44.1792 44.6507 43.2652 45.5 42.1344 45.5C39.4986 45.5 37.5029 44.8331 35.9999 43.8299C35.9999 47.21 35.9999 49.7579 35.9999 50.25C35.9999 52.8739 38.2881 55 41.112 55C43.6169 55 45.6924 53.3223 46.13 51.1126C49.6389 50.6851 52.3586 47.9263 52.3586 44.55C52.3586 44.2365 52.3054 43.9363 52.2584 43.6342C54.7878 41.9033 56.4482 39.1407 56.4482 36ZM46.2241 36C45.0933 36 44.1792 35.1507 44.1792 34.1C44.1792 33.2488 43.0505 32.2 42.1344 32.2C41.0036 32.2 40.0896 31.3507 40.0896 30.3C40.0896 29.2493 41.0036 28.4 42.1344 28.4C45.2875 28.4 48.2689 31.1702 48.2689 34.1C48.2689 35.1507 47.3549 36 46.2241 36Z" fill="white"/>
</svg>
