<svg width="109" height="36" viewBox="0 0 109 36" fill="none" xmlns="http://www.w3.org/2000/svg">
<g clip-path="url(#clip0_1214:66130)">
<path d="M104.026 6.6538H99.2729V0H88.8369L84.0376 6.6538H75.5094L72.6577 9.50543V6.6538H66.0039V0H45.092V6.6538H15.6727L10.8725 0H0.416504V22.813L13.7241 36.1206H27.0317V32.3184L30.8339 36.1206H56.4985V32.3184L60.3007 36.1206H72.6577V32.3184L76.4599 36.1206H100.223L108.778 27.5657V11.4065L104.026 6.6538ZM16.5757 16.1592H9.92193V18.0603H16.5757V25.6646H6.11976L2.31759 21.8625V1.90109H9.92193V8.55488H16.5757V16.1592ZM45.092 25.6646H22.279L18.4768 21.8625V8.55488H26.0812V18.0603H27.9822V8.55488H35.5866V18.0603H37.4877V8.55488H45.092V25.6646ZM54.5974 25.6646H46.9931V8.55488H54.5974V25.6646ZM54.5974 6.6538H46.9931V1.90109H54.5974V6.6538ZM70.7567 16.1592H64.1029V18.0603H70.7567V25.6646H60.3007L56.4985 21.8625V1.90109H64.1029V8.55488H70.7567V16.1592ZM87.8664 16.1592H80.2621V18.0603H87.8664V25.6646H76.4599L72.6577 21.8625V12.3571L76.4599 8.55488H87.8664V16.1592ZM106.877 25.6646H99.2729V16.1592H97.3718V25.6646H89.7675V1.90109H97.3718V8.55488H103.075L106.877 12.3571V25.6646Z" fill="#ACABC7"/>
</g>
<defs>
<clipPath id="clip0_1214:66130">
<rect width="109" height="36" fill="white"/>
</clipPath>
</defs>
</svg>
