<svg width="136" height="36" viewBox="0 0 136 36" fill="none" xmlns="http://www.w3.org/2000/svg">
<path d="M44.3228 14.2635C44.3228 11.8444 41.9704 9.27512 37.8996 9.27512C33.3282 9.27512 28.3064 12.6285 27.539 19.3187C26.7548 26.0756 30.9591 29.0787 35.1968 29.0787C39.4345 29.0787 41.6534 27.427 43.9224 25.2247C41.9704 22.7722 39.4511 23.9067 38.9673 24.157C38.4334 24.4239 37.7494 24.791 36.348 24.791C34.713 24.791 33.0446 24.0569 33.0446 21.0038C43.522 19.9694 44.3228 16.6827 44.3228 14.2635ZM39.1342 14.664C39.0674 15.4147 38.7671 16.6994 33.4617 17.4168C34.5795 13.446 36.715 13.1457 37.6994 13.1457C38.617 13.1457 39.2009 13.8631 39.1342 14.664ZM21.3827 15.3146C21.3827 15.3146 19.1304 22.3885 18.9469 22.9724C18.8801 22.3718 17.2285 9.67553 17.2285 9.67553C13.3912 9.67553 11.3391 12.4117 10.2547 15.2979C10.2547 15.2979 7.51854 22.3885 7.28497 22.9891C7.26828 22.4386 6.86787 15.3814 6.86787 15.3814C6.6343 11.8444 3.39766 9.69221 0.77832 9.69221L3.94822 28.9285C7.969 28.9118 10.1379 26.1924 11.2724 23.3061C11.2724 23.3061 13.6915 17.0497 13.7916 16.7661C13.8083 17.033 15.5267 28.9285 15.5267 28.9285C19.5642 28.9285 21.7331 26.3759 22.9009 23.5897L28.5567 9.69221C24.5693 9.69221 22.4671 12.4117 21.3827 15.3146ZM59.1379 9.24175C56.652 9.24175 54.7501 10.5931 53.1485 12.5785V12.5618L54.5833 1C51.2799 1 48.5938 3.8696 48.0766 8.14063L45.5741 28.7784C47.476 28.7784 49.4947 28.2278 50.5792 26.8264C51.5468 28.0777 52.9983 29.0787 55.1505 29.0787C60.7229 29.0787 64.5434 22.6054 64.5434 16.5325C64.5101 10.9935 61.824 9.24175 59.1379 9.24175ZM58.6207 19.1686C58.0368 22.5553 56.1515 24.8577 54.333 24.8577C52.4978 24.8577 51.7137 24.0402 51.7137 24.0402C52.064 21.0705 52.2809 19.252 52.9483 17.6837C53.6156 16.1154 55.2006 13.6129 56.8523 13.6129C58.4706 13.6129 59.2047 15.7651 58.6207 19.1686ZM78.4577 9.69221H74.5703L74.587 9.49201C74.854 6.95608 75.4546 5.62139 77.4399 5.4045C78.7913 5.27103 79.3919 4.57031 79.5421 3.80286C79.6589 3.20225 80.0259 1.11679 80.0259 1.11679C72.2179 1.06673 69.7654 4.43684 69.1315 9.57542L69.1148 9.69221H69.0314C67.7634 9.69221 66.362 11.127 66.1284 12.9455L66.045 13.6129H68.6476L66.4621 31.6647L65.7947 34.9013C65.8781 34.9013 65.9782 34.918 66.0617 34.918C69.7154 34.7845 72.0511 31.8982 72.5683 27.7106L74.27 13.6129H75.4879C76.6892 13.6129 78.0906 12.4117 78.3409 10.4096L78.4577 9.69221ZM98.6783 9.35854C94.1904 9.35854 89.9527 12.6619 88.6514 17.8505C87.3501 23.0392 89.3187 29.1788 95.9255 29.1788C102.516 29.1788 106.319 22.7889 106.319 17.4668C106.319 12.1781 102.732 9.35854 98.6783 9.35854ZM100.497 19.0017C100.263 21.3541 99.2289 24.9244 96.3926 24.9244C93.5397 24.9244 93.9401 20.7535 94.2237 18.7681C94.5241 16.6493 95.7086 13.6296 98.2612 13.6296C100.547 13.6296 100.764 16.349 100.497 19.0017ZM128.492 15.3146C128.492 15.3146 126.24 22.3885 126.056 22.9724C125.99 22.3718 124.338 9.67553 124.338 9.67553C120.501 9.67553 118.448 12.4117 117.364 15.2979C117.364 15.2979 114.628 22.3885 114.394 22.9891C114.378 22.4386 113.977 15.3814 113.977 15.3814C113.744 11.8444 110.507 9.69221 107.888 9.69221L111.041 28.9285C115.062 28.9118 117.231 26.1924 118.365 23.3061C118.365 23.3061 120.784 17.0497 120.868 16.7661C120.901 17.033 122.603 28.9285 122.603 28.9285C126.64 28.9285 128.809 26.3759 129.977 23.5897L135.633 9.69221C131.662 9.69221 129.56 12.4117 128.492 15.3146ZM82.1281 1.11679L78.8581 27.4937L78.1907 30.747C78.2741 30.747 78.3742 30.7637 78.4577 30.7637C81.9779 30.7137 84.4805 27.6272 84.9476 23.7399L86.8329 8.60777C87.4001 3.98638 84.6473 1.11679 82.1281 1.11679Z" fill="#ACABC7"/>
</svg>
