<svg width="127" height="36" viewBox="0 0 127 36" fill="none" xmlns="http://www.w3.org/2000/svg">
<path d="M21.4016 32.0751L13.1523 31.9225C10.4813 31.8694 7.80371 31.9756 5.18521 31.4251C1.20166 30.6026 0.919467 26.5699 0.624147 23.1872C0.217261 18.4315 0.374765 13.5896 1.1426 8.8737C1.57573 6.22723 3.28203 4.64863 5.92023 4.47618C14.8258 3.8527 23.7904 3.92566 32.6763 4.2175C33.6147 4.24403 34.5597 4.38996 35.4851 4.55577C40.0527 5.36497 40.1643 9.93494 40.4596 13.7819C40.7549 17.6687 40.6302 21.5754 40.0658 25.4357C39.613 28.6327 38.7467 31.3123 35.0913 31.571C30.5106 31.9092 26.0348 32.1812 21.441 32.095C21.441 32.0751 21.4147 32.0751 21.4016 32.0751V32.0751ZM16.5518 23.9831C20.0037 21.98 23.3901 20.0101 26.8223 18.0203C23.3638 16.0172 19.984 14.0472 16.5518 12.0574V23.9831Z" fill="#ACABC7"/>
<path d="M106.627 28.4404C106.47 29.0904 106.332 29.6012 106.194 30.1451H102.965V4.97351H106.732V14.2595C106.929 14.0074 107.028 13.9013 107.113 13.7885C107.756 12.8931 108.589 12.3094 109.666 12.0839C111.379 11.7456 112.842 12.5084 113.361 14.1732C113.695 15.2079 113.912 16.3156 113.938 17.3968C113.991 20.1759 113.951 22.9484 113.853 25.7276C113.813 26.5766 113.557 27.4455 113.236 28.2414C112.179 30.868 108.727 31.266 107.014 28.9909C106.909 28.8517 106.811 28.6991 106.627 28.4404V28.4404ZM106.811 21.5158V26.1189C106.811 26.8684 107.205 27.3261 107.946 27.4986C108.675 27.671 109.265 27.3858 109.561 26.7026C109.685 26.4174 109.81 26.1189 109.817 25.8205C109.889 23.0081 109.955 20.1958 109.974 17.3769C109.974 16.8529 109.85 16.309 109.692 15.7983C109.397 14.8763 108.583 14.6044 107.782 15.1416C107.179 15.5529 106.811 16.1365 106.811 16.9126V21.5158ZM96.5732 12.4421H100.517V30.1583H97.4395C97.328 29.4884 97.2164 28.7986 97.0851 27.9894C96.8751 28.3011 96.7504 28.5001 96.6192 28.6991C95.5954 30.1915 94.1451 30.7022 92.4322 30.4303C90.9687 30.1915 90.0893 29.0506 89.8925 27.1802C89.8334 26.623 89.8071 26.0592 89.8071 25.5021C89.794 21.3566 89.8071 17.1978 89.8071 13.0523V12.4288H93.7972V13.1518C93.7972 17.158 93.7841 21.1576 93.8104 25.1638C93.8104 25.7342 93.8694 26.3246 93.9679 26.895C94.0794 27.4787 94.4994 27.6909 95.0638 27.6511C95.976 27.5782 96.6061 26.895 96.6061 25.9796V13.2247C96.5732 12.9661 96.5732 12.7273 96.5732 12.4421V12.4421ZM69.4169 12.4288H73.3808V13.1783C73.3808 17.1646 73.3677 21.1443 73.3939 25.1174C73.3939 25.6878 73.4464 26.2781 73.5645 26.8353C73.7155 27.4919 74.0961 27.7042 74.7458 27.618C75.6449 27.4919 76.1896 26.8618 76.1962 25.9398V13.2513V12.4553H80.1403V30.1583H77.0756C76.964 29.5017 76.8524 28.8251 76.7081 27.9695C76.5112 28.268 76.3996 28.4404 76.288 28.6195C75.2643 30.1384 73.827 30.6956 72.0748 30.4236C70.6704 30.2114 69.8107 29.1634 69.5482 27.4455C69.476 26.9082 69.4235 26.3776 69.4235 25.8404C69.4104 21.5357 69.4104 17.2111 69.4104 12.9064L69.4169 12.4288ZM67.3825 21.8872C67.3694 22.4842 67.33 23.0811 67.2972 23.6781C67.1462 25.4689 67.0741 28.0093 65.6434 29.316C64.7312 30.1384 63.5762 30.4369 62.3818 30.4767C61.8502 30.49 61.312 30.49 60.7805 30.417C58.267 30.0323 57.0988 28.9114 56.6788 26.1189C56.1997 22.8954 56.1603 19.6188 56.7313 16.3952C57.3219 13.0589 59.3564 11.8783 62.5196 12.0972C65.4728 12.3094 66.7919 14.2661 67.1397 17.0519C67.33 18.6504 67.4219 20.2688 67.3825 21.8872V21.8872ZM63.3662 21.277C63.3662 20.1428 63.3924 19.0019 63.353 17.8677C63.3268 17.2111 63.2415 16.5478 63.1036 15.8978C62.9461 15.1483 62.4736 14.7901 61.883 14.8033C61.3055 14.8166 60.8986 15.1748 60.6886 15.8712C60.6164 16.1299 60.5376 16.3952 60.5376 16.6539C60.5376 18.4315 60.5245 20.2157 60.5114 21.9933C60.4983 23.6515 60.2883 25.3893 60.8067 26.9746C60.9642 27.4588 61.3711 27.7241 61.9027 27.7241C62.4211 27.7241 62.7624 27.4654 62.9527 27.0011C63.1036 26.6429 63.2349 26.2516 63.2349 25.8669C63.2808 24.3413 63.3662 22.8092 63.3662 21.277ZM50.8905 17.9407C51.2383 16.2228 51.5665 14.5447 51.9274 12.8599C52.3803 10.7175 52.8856 8.57513 53.3318 6.4261C53.4434 5.90211 53.6534 5.77608 54.1456 5.78935C55.2022 5.82914 56.2785 5.80261 57.4073 5.80261C57.0397 7.16897 56.6788 8.46901 56.3244 9.74914C55.2022 13.7686 54.08 17.8014 52.9709 21.8341C52.8856 22.1459 52.8462 22.4842 52.8462 22.8158C52.8331 25.0179 52.8462 27.2134 52.8462 29.4154V30.1318H48.9939C48.9808 29.9328 48.9545 29.7338 48.9545 29.5348C48.9545 28.2879 48.8561 27.0343 48.9677 25.8006C49.2499 22.8357 48.318 20.1096 47.5633 17.3504C46.5657 13.7023 45.5551 10.041 44.5576 6.39293C44.5051 6.22048 44.4854 6.03476 44.4329 5.82251H48.3639C49.1908 9.84863 50.0243 13.8748 50.8905 17.9407ZM126.263 22.5637H119.621C119.694 23.9102 119.72 25.1903 119.858 26.4572C119.956 27.3394 120.435 27.7174 121.19 27.7241C121.977 27.7373 122.437 27.3394 122.62 26.4638C122.68 26.1786 122.719 25.8934 122.745 25.6016C122.771 25.3429 122.785 25.0643 122.804 24.6929C123.926 24.7526 125.022 24.8189 126.105 24.8653C126.735 26.7557 125.6 29.1833 123.69 29.9328C122.187 30.5298 120.645 30.5298 119.109 30.0721C117.974 29.7338 117.128 29.0042 116.747 27.8833C116.392 26.8353 116.058 25.7409 115.986 24.6464C115.789 21.9469 115.717 19.2208 116.123 16.5146C116.196 16.0636 116.32 15.6325 116.458 15.1947C117.009 13.3906 118.21 12.2829 120.068 12.0972C121.078 11.9977 122.122 12.0375 123.119 12.2099C124.734 12.4951 125.593 13.6691 125.967 15.2079C126.138 15.9309 126.263 16.6738 126.289 17.41C126.296 19.1014 126.263 20.7795 126.263 22.5637ZM122.489 20.2356C122.489 18.9024 122.502 17.6488 122.476 16.3886C122.476 16.0901 122.365 15.7784 122.253 15.4932C122.03 14.936 121.564 14.7834 121.006 14.7834C120.448 14.7834 120.094 15.0687 119.956 15.5794C119.536 17.1116 119.674 18.6769 119.687 20.2489C120.691 20.2356 121.603 20.2356 122.489 20.2356V20.2356Z" fill="#ACABC7"/>
<path d="M83.185 9.05298H79.2803V5.85596H90.9355V9.03308H87.057V30.1321H83.1916L83.185 9.05298Z" fill="#ACABC7"/>
</svg>
